<svg width="276" height="114" viewBox="0 0 276 114" fill="none" xmlns="http://www.w3.org/2000/svg">
<path d="M12.7348 25.8471C12.7348 12.3783 23.6534 1.45966 37.1222 1.45966V36.7572H12.7348V25.8471Z" fill="#17FFB2" stroke="#17FFB2"/>
<rect x="12.7348" y="36.7573" width="24.3874" height="41.4048" fill="#17FFB2" stroke="#17FFB2"/>
<path fill-rule="evenodd" clip-rule="evenodd" d="M13.1774 93.7216C12.8869 92.2165 12.7348 90.6621 12.7348 89.0722V78.162H37.1222V113.46C31.2166 113.46 25.8013 111.361 21.5817 107.868C17.372 110.672 10.6218 113.338 2.46638 111.855C4.71259 110.893 13.3765 105.117 13.0557 93.5646C13.0946 93.6182 13.1352 93.6705 13.1774 93.7216Z" fill="#17FFB2"/>
<path d="M13.1774 93.7216L12.792 94.0401L13.6684 93.6268L13.1774 93.7216ZM12.7348 78.162V77.662H12.2348V78.162H12.7348ZM37.1222 78.162H37.6222V77.662H37.1222V78.162ZM37.1222 113.46V113.96H37.6222V113.46H37.1222ZM21.5817 107.868L21.9005 107.483L21.614 107.245L21.3044 107.452L21.5817 107.868ZM2.46638 111.855L2.26942 111.396L0.742589 112.05L2.37693 112.347L2.46638 111.855ZM13.0557 93.5646L13.46 93.2705L12.511 91.9657L12.5558 93.5785L13.0557 93.5646ZM12.2348 89.0722C12.2348 90.6941 12.39 92.2802 12.6865 93.8164L13.6684 93.6268C13.3838 92.1528 13.2348 90.6302 13.2348 89.0722H12.2348ZM12.2348 78.162V89.0722H13.2348V78.162H12.2348ZM37.1222 77.662H12.7348V78.662H37.1222V77.662ZM37.6222 113.46V78.162H36.6222V113.46H37.6222ZM21.2628 108.253C25.5688 111.817 31.096 113.96 37.1222 113.96V112.96C31.3372 112.96 26.0337 110.904 21.9005 107.483L21.2628 108.253ZM2.37693 112.347C10.6916 113.859 17.5717 111.14 21.8589 108.284L21.3044 107.452C17.1722 110.204 10.5519 112.817 2.55582 111.363L2.37693 112.347ZM12.5558 93.5785C12.7125 99.2165 10.6793 103.436 8.33324 106.369C5.97732 109.313 3.31593 110.947 2.26942 111.396L2.66334 112.315C3.86303 111.801 6.65672 110.065 9.11411 106.993C11.5813 103.909 13.7197 99.4647 13.5555 93.5507L12.5558 93.5785ZM13.5629 93.4031C13.5271 93.3598 13.4928 93.3156 13.46 93.2705L12.6513 93.8587C12.6964 93.9207 12.7433 93.9812 12.792 94.0401L13.5629 93.4031Z" fill="#17FFB2"/>
<rect x="37.1222" y="1.45972" width="214" height="112" fill="#17FFB2"/>
<rect x="37.1222" y="1.45972" width="214" height="112" stroke="#17FFB2"/>
<path d="M275.51 25.8471C275.51 12.3783 264.591 1.45966 251.122 1.45966V36.7572H275.51V25.8471Z" fill="#17FFB2" stroke="#17FFB2"/>
<rect width="24.3874" height="41.4048" transform="matrix(-1 0 0 1 275.51 36.7573)" fill="#17FFB2" stroke="#17FFB2"/>
<path d="M275.51 89.0722C275.51 102.541 264.591 113.46 251.122 113.46V78.1621H275.51V89.0722Z" fill="#17FFB2" stroke="#17FFB2"/>
</svg>
