<svg fill="none" height="334" viewBox="0 0 520 334" width="520" xmlns="http://www.w3.org/2000/svg" xmlns:xlink="http://www.w3.org/1999/xlink"><filter id="a" color-interpolation-filters="sRGB" filterUnits="userSpaceOnUse" height="333.938" width="519" x=".50354" y=".071777"><feFlood flood-opacity="0" result="BackgroundImageFix"/><feColorMatrix in="SourceAlpha" result="hardAlpha" type="matrix" values="0 0 0 0 0 0 0 0 0 0 0 0 0 0 0 0 0 0 127 0"/><feOffset/><feGaussianBlur stdDeviation="12"/><feComposite in2="hardAlpha" operator="out"/><feColorMatrix type="matrix" values="0 0 0 0 0.0883301 0 0 0 0 1 0 0 0 0 0.69611 0 0 0 0.5 0"/><feBlend in2="BackgroundImageFix" mode="normal" result="effect1_dropShadow_382_727"/><feBlend in="SourceGraphic" in2="effect1_dropShadow_382_727" mode="normal" result="shape"/><feColorMatrix in="SourceAlpha" result="hardAlpha" type="matrix" values="0 0 0 0 0 0 0 0 0 0 0 0 0 0 0 0 0 0 127 0"/><feOffset/><feGaussianBlur stdDeviation="6"/><feComposite in2="hardAlpha" k2="-1" k3="1" operator="arithmetic"/><feColorMatrix type="matrix" values="0 0 0 0 1 0 0 0 0 1 0 0 0 0 1 0 0 0 0.25 0"/><feBlend in2="shape" mode="normal" result="effect2_innerShadow_382_727"/></filter><linearGradient id="b" gradientUnits="userSpaceOnUse" x1="433.53" x2="73.3649" y1="130.061" y2="89.499"><stop offset="0" stop-color="#006745"/><stop offset="1" stop-color="#17ffb2"/></linearGradient><g fill="url(#b)" filter="url(#a)"><path d="m492.365 36.1924c5.644 34.2264 3.658 69.2766-5.818 102.6466-9.475 33.369-26.206 64.233-48.995 90.386-22.789 26.152-51.074 46.948-82.834 60.899-31.759 13.951-66.209 20.714-100.885 19.805-34.677-.909-68.725-9.467-99.71-25.063s-58.1418-37.845-79.5296-65.155c-21.3878-27.311-36.4782-59.009-44.1926-92.829-7.7143-33.8199-7.862-68.9265-.4326-102.8102l26.2868 5.7637c-6.5805 30.0117-6.4496 61.1066.3832 91.0615 6.8327 29.956 20.1987 58.032 39.1425 82.221 18.9433 24.19 42.9973 43.896 70.4413 57.71 27.445 13.814 57.602 21.394 88.316 22.199s61.227-5.185 89.357-17.542 53.183-30.776 73.368-53.94 35.004-50.501 43.396-80.057c8.393-29.556 10.153-60.6017 5.154-90.917z"/><path d="m437.664 45.226c4.313 26.1689 2.792 52.9676-4.454 78.48-7.247 25.513-20.04 49.11-37.466 69.105-17.425 19.994-39.052 35.892-63.336 46.557-24.283 10.665-50.622 15.834-77.135 15.137s-52.544-7.242-76.234-19.168c-23.689-11.926-44.452-28.938-60.803-49.82s-27.8868-45.119-33.7831-70.977c-5.8964-25.8583-6.0074-52.6999-.3253-78.6061l3.2802.7194c-5.5762 25.4231-5.4673 51.7641.3191 77.1397 5.7864 25.376 17.1071 49.161 33.1531 69.653 16.046 20.493 36.421 37.188 59.669 48.891 23.248 11.704 48.794 18.127 74.812 18.811 26.019.684 51.867-4.389 75.697-14.855s45.054-26.067 62.155-45.689c17.1-19.621 29.655-42.778 36.766-67.815 7.112-25.0371 8.604-51.336 4.371-77.0168z"/></g></svg>