<svg width="48" height="48" viewBox="0 0 48 48" fill="none" xmlns="http://www.w3.org/2000/svg">
<path fill-rule="evenodd" clip-rule="evenodd" d="M37.7683 43.1011C43.7373 38.7746 47.6197 31.7456 47.6197 23.8099C47.6197 10.66 36.9597 0 23.8099 0C10.66 0 0 10.66 0 23.8099C0 31.5253 3.66975 38.3836 9.35899 42.7345C9.68821 42.3011 10.0225 41.8752 10.372 41.4689L10.4164 41.4173C10.6527 41.1422 10.8718 40.8873 11.2028 40.7264C11.3622 39.9272 11.4923 39.1216 11.6223 38.3161C11.7297 37.6507 11.8371 36.9855 11.961 36.3241C12.0069 36.0794 12.0544 35.8013 12.1043 35.5086C12.2442 34.6895 12.4034 33.7569 12.6014 33.1274C12.6386 33.0078 12.6677 32.9157 12.7747 32.8387C12.8576 32.8908 12.8574 32.9538 12.8572 33.0223C12.8571 33.0474 12.857 33.0732 12.861 33.0994C12.9756 33.8598 13.0727 34.6233 13.1698 35.3871C13.2898 36.331 13.4099 37.2755 13.5632 38.2156C13.9908 40.8368 14.5555 43.4177 15.1409 45.9923C15.3501 46.0742 15.5608 46.1531 15.7729 46.2292C15.094 43.2177 14.4178 40.205 13.8502 37.164C13.7584 36.6711 13.682 36.1597 13.6049 35.6438L13.6049 35.6437C13.4364 34.5155 13.2646 33.3654 12.9205 32.3388C12.7858 31.9375 12.6243 31.5611 12.4654 31.1908C12.0913 30.3191 11.7318 29.4813 11.7712 28.4317C11.8626 26.0235 12.3304 23.0764 12.7615 20.6927C12.8073 20.4391 12.8488 20.1983 12.8885 19.9683L12.8885 19.9683C13.2403 17.9288 13.4446 16.7441 15.1465 15.1355C17.0146 13.3695 19.5579 11.4745 21.6816 10.0199L21.6957 10.0103C22.0716 9.75275 23.4801 8.78781 23.8058 8.80854C24.0389 8.82321 24.9673 9.45636 25.4082 9.757L25.4086 9.75725C25.4759 9.80316 25.5318 9.84131 25.5721 9.86829C27.5957 11.222 29.7326 12.8201 31.5589 14.4357C31.6414 14.5087 31.7229 14.5803 31.8032 14.6508L31.8034 14.651L31.8034 14.651C32.8958 15.611 33.7678 16.3773 34.1497 17.9164C34.6449 19.9123 34.9926 22.3625 35.2676 24.4173C35.3004 24.6632 35.3383 24.9303 35.378 25.2102L35.3784 25.213L35.3786 25.2142C35.5447 26.386 35.7426 27.7813 35.737 28.784C35.733 29.4913 35.2937 30.5695 34.8696 31.6105L34.8696 31.6106C34.5743 32.3355 34.2863 33.0423 34.1577 33.5934C33.9131 34.6408 33.741 35.7391 33.5694 36.8337C33.4534 37.5738 33.3377 38.3122 33.2 39.0321C32.7312 41.4801 32.1888 43.8953 31.63 46.3057C32.7587 45.9134 33.8488 45.4385 34.893 44.8883C34.7965 44.2155 34.715 43.5335 34.646 42.8395C34.3321 39.6813 34.1915 36.488 34.4711 33.3303C34.4716 33.324 34.4721 33.3176 34.4724 33.311C34.4728 33.305 34.473 33.2989 34.4733 33.2927C34.4734 33.2882 34.4736 33.2836 34.4738 33.279V33.2789V33.2789C34.4765 33.1995 34.4796 33.1119 34.5609 33.0714C34.6441 33.0298 34.6545 33.1194 34.6628 33.1909C34.6653 33.2127 34.6676 33.2328 34.6718 33.2469C34.8264 33.7765 34.8864 34.3396 34.946 34.8987C34.9774 35.1936 35.0087 35.4875 35.0537 35.7747C35.1516 36.3984 35.2593 37.0205 35.3669 37.6425L35.367 37.6432L35.367 37.6433L35.3671 37.6433L35.3671 37.6434L35.3671 37.6435C35.5536 38.7213 35.7401 39.799 35.876 40.8857C36.567 41.5723 37.1768 42.3285 37.7683 43.1011ZM10.9168 43.8302C10.9408 43.5792 10.9646 43.328 10.9884 43.0767L11.0301 42.636C10.9226 42.6885 10.8852 42.8351 10.8536 42.9591C10.8459 42.9894 10.8385 43.0183 10.8305 43.0442C10.7686 43.2454 10.713 43.4525 10.661 43.6628C10.7459 43.7192 10.8312 43.775 10.9168 43.8302ZM26.2999 47.4911C27.1384 45.6098 27.9641 43.7221 28.7896 41.8345L28.7896 41.8345L28.7896 41.8344L28.7896 41.8344L28.7897 41.8341L28.7907 41.8319C29.3557 40.5401 29.9206 39.2484 30.4896 37.959C30.8381 37.1692 31.1979 36.3844 31.5577 35.5994L31.5577 35.5994L31.5577 35.5994L31.5578 35.5993C32.479 33.5895 33.4006 31.5792 34.1337 29.485C32.2073 24.8407 29.4312 20.4174 25.4909 17.3C24.9306 16.8567 24.3439 16.4385 23.7521 16.0396C21.1784 17.8167 18.9947 19.8849 17.193 22.4721C15.8773 24.3618 14.4323 26.7397 13.5935 28.8907C13.3721 29.458 13.4231 29.5953 13.5697 29.9901C13.6011 30.0746 13.6368 30.1709 13.6753 30.2858C13.916 31.0072 14.213 31.7189 14.5062 32.422L14.6227 32.7016C16.2368 36.5845 17.9792 40.4176 19.721 44.2495C20.2099 45.3249 20.6987 46.4003 21.1847 47.4766C22.0467 47.5712 22.9226 47.6197 23.8099 47.6197C24.6508 47.6197 25.4815 47.5761 26.2999 47.4911Z" fill="#17FFB2"/>
</svg>
