<svg fill="none" height="335" viewBox="0 0 278 335" width="278" xmlns="http://www.w3.org/2000/svg" xmlns:xlink="http://www.w3.org/1999/xlink"><filter id="a" color-interpolation-filters="sRGB" filterUnits="userSpaceOnUse" height="278" width="278" x="0" y="0"><feFlood flood-opacity="0" result="BackgroundImageFix"/><feColorMatrix in="SourceAlpha" result="hardAlpha" type="matrix" values="0 0 0 0 0 0 0 0 0 0 0 0 0 0 0 0 0 0 127 0"/><feOffset/><feGaussianBlur stdDeviation="12"/><feComposite in2="hardAlpha" operator="out"/><feColorMatrix type="matrix" values="0 0 0 0 0.0883301 0 0 0 0 1 0 0 0 0 0.69611 0 0 0 0.5 0"/><feBlend in2="BackgroundImageFix" mode="normal" result="effect1_dropShadow_339_250"/><feBlend in="SourceGraphic" in2="effect1_dropShadow_339_250" mode="normal" result="shape"/><feColorMatrix in="SourceAlpha" result="hardAlpha" type="matrix" values="0 0 0 0 0 0 0 0 0 0 0 0 0 0 0 0 0 0 127 0"/><feOffset/><feGaussianBlur stdDeviation="6"/><feComposite in2="hardAlpha" k2="-1" k3="1" operator="arithmetic"/><feColorMatrix type="matrix" values="0 0 0 0 1 0 0 0 0 1 0 0 0 0 1 0 0 0 0.25 0"/><feBlend in2="shape" mode="normal" result="effect2_innerShadow_339_250"/></filter><linearGradient id="b" gradientUnits="userSpaceOnUse" x1="139" x2="139" y1="29" y2="249"><stop offset="0" stop-color="#006745"/><stop offset="1" stop-color="#17ffb2"/></linearGradient><path d="m63.86 160.54c-1.84 0-3.56-.22-5.16-.66-1.56-.44-2.96-1.06-4.2-1.86-1.24-.84-2.28-1.84-3.12-3-.8-1.16-1.34-2.46-1.62-3.9l3-3.18c.08.88.4 1.78.96 2.7s1.3 1.76 2.22 2.52c.96.72 2.1 1.32 3.42 1.8 1.32.44 2.8.66 4.44.66 1.36 0 2.64-.18 3.84-.54s2.24-.86 3.12-1.5c.92-.64 1.62-1.42 2.1-2.34.52-.92.78-1.94.78-3.06 0-2.48-1.18-4.38-3.54-5.7-2.36-1.36-5.6-2.04-9.72-2.04h-2.04v-4.5h2.04c3.72 0 6.66-.58 8.82-1.74 2.2-1.16 3.3-2.94 3.3-5.34 0-1.12-.24-2.14-.72-3.06s-1.14-1.68-1.98-2.28c-.8-.64-1.74-1.12-2.82-1.44-1.04-.36-2.12-.54-3.24-.54-1.28 0-2.48.16-3.6.48-1.08.28-2.06.68-2.94 1.2s-1.64 1.14-2.28 1.86c-.6.68-1.08 1.4-1.44 2.16l-3.54-3.66c.6-1.04 1.38-1.98 2.34-2.82 1-.84 2.1-1.54 3.3-2.1 1.2-.6 2.48-1.04 3.84-1.32 1.4-.32 2.82-.48 4.26-.48 2.08 0 4 .3 5.76.9s3.28 1.44 4.56 2.52c1.28 1.04 2.28 2.28 3 3.72.72 1.4 1.08 2.94 1.08 4.62 0 2.44-.72 4.46-2.16 6.06-1.44 1.56-3.48 2.66-6.12 3.3 1.4.24 2.66.7 3.78 1.38 1.16.68 2.14 1.5 2.94 2.46.84.96 1.48 2.04 1.92 3.24s.66 2.46.66 3.78c0 1.88-.42 3.54-1.26 4.98s-1.96 2.66-3.36 3.66-3.02 1.76-4.86 2.28-3.76.78-5.76.78zm38.938.06c-2.9603-.04-5.5603-.74-7.8003-2.1-2.2-1.36-4.06-3.08-5.58-5.16-1.48-2.12-2.6-4.44-3.36-6.96s-1.14-4.98-1.14-7.38c0-2.56.4-5.12 1.2-7.68.84-2.6 2.04-4.92 3.6-6.96 1.56-2.08 3.44-3.76 5.64-5.04s4.6803-1.92 7.4403-1.92c2.96 0 5.54.7 7.74 2.1 2.24 1.36 4.1 3.1 5.58 5.22 1.52 2.12 2.66 4.46 3.42 7.02.76 2.52 1.14 4.94 1.14 7.26 0 2.6-.42 5.18-1.26 7.74-.8 2.56-1.98 4.86-3.54 6.9s-3.44 3.7-5.64 4.98-4.68 1.94-7.44 1.98zm-12.4203-21.6c.04 1.96.32 3.94.84 5.94.56 1.96 1.36 3.74 2.4 5.34s2.32 2.92 3.84 3.96c1.52 1 3.3003 1.5 5.3403 1.5 2.12 0 3.96-.54 5.52-1.62s2.84-2.44 3.84-4.08c1.04-1.64 1.8-3.44 2.28-5.4.52-2 .78-3.88.78-5.64 0-1.96-.28-3.92-.84-5.88-.56-2-1.36-3.8-2.4-5.4s-2.34-2.9-3.9-3.9c-1.56-1.04-3.32-1.56-5.28-1.56-2.12 0-3.9603.54-5.5203 1.62s-2.86 2.46-3.9 4.14c-1 1.64-1.76 3.44-2.28 5.4-.48 1.96-.72 3.82-.72 5.58zm53.8453 21.6c-2.96-.04-5.56-.74-7.8-2.1-2.2-1.36-4.06-3.08-5.58-5.16-1.48-2.12-2.6-4.44-3.36-6.96s-1.14-4.98-1.14-7.38c0-2.56.4-5.12 1.2-7.68.84-2.6 2.04-4.92 3.6-6.96 1.56-2.08 3.44-3.76 5.64-5.04s4.68-1.92 7.44-1.92c2.96 0 5.54.7 7.74 2.1 2.24 1.36 4.1 3.1 5.58 5.22 1.52 2.12 2.66 4.46 3.42 7.02.76 2.52 1.14 4.94 1.14 7.26 0 2.6-.42 5.18-1.26 7.74-.8 2.56-1.98 4.86-3.54 6.9s-3.44 3.7-5.64 4.98-4.68 1.94-7.44 1.98zm-12.42-21.6c.04 1.96.32 3.94.84 5.94.56 1.96 1.36 3.74 2.4 5.34s2.32 2.92 3.84 3.96c1.52 1 3.3 1.5 5.34 1.5 2.12 0 3.96-.54 5.52-1.62s2.84-2.44 3.84-4.08c1.04-1.64 1.8-3.44 2.28-5.4.52-2 .78-3.88.78-5.64 0-1.96-.28-3.92-.84-5.88-.56-2-1.36-3.8-2.4-5.4s-2.34-2.9-3.9-3.9c-1.56-1.04-3.32-1.56-5.28-1.56-2.12 0-3.96.54-5.52 1.62s-2.86 2.46-3.9 4.14c-1 1.64-1.76 3.44-2.28 5.4-.48 1.96-.72 3.82-.72 5.58zm38.246 21v-42.54h5.4v23.52l21.96-23.58h5.82l-17.1 18.78 18.06 23.82h-5.88l-15.48-20.7-7.38 7.68v13.02zm56.001-23.46v4.32h-7.08v7.68h-4.8v-7.68h-7.08v-4.32h7.08v-7.68h4.8v7.68z" fill="#fff"/><path d="m98.2745 298v-18.46h7.6955c.815 0 1.56.173 2.236.52.694.329 1.283.78 1.768 1.352.503.555.893 1.187 1.17 1.898.278.693.416 1.404.416 2.132 0 .763-.13 1.499-.39 2.21s-.632 1.343-1.118 1.898c-.468.555-1.04.997-1.716 1.326-.658.329-1.395.494-2.21.494h-5.512v6.63zm2.3395-8.71h5.382c.486 0 .919-.095 1.3-.286.399-.208.737-.485 1.014-.832.278-.364.494-.78.65-1.248s.234-.962.234-1.482c0-.537-.095-1.04-.286-1.508-.173-.468-.416-.875-.728-1.222-.294-.347-.65-.615-1.066-.806-.398-.191-.823-.286-1.274-.286h-5.226zm19.248 8.97c-1.023 0-1.959-.182-2.808-.546-.85-.381-1.578-.893-2.184-1.534-.607-.641-1.084-1.387-1.43-2.236-.33-.867-.494-1.777-.494-2.73s.164-1.855.494-2.704c.346-.849.823-1.595 1.43-2.236.624-.641 1.36-1.144 2.21-1.508.849-.381 1.785-.572 2.808-.572 1.022 0 1.95.191 2.782.572.849.381 1.568.893 2.158 1.534.589.624 1.04 1.361 1.352 2.21.329.832.494 1.699.494 2.6 0 .191-.009.364-.026.52 0 .156-.009.277-.026.364h-11.258c.052.676.208 1.291.468 1.846s.598 1.031 1.014 1.43.884.711 1.404.936c.537.225 1.1.338 1.69.338.416 0 .823-.052 1.222-.156.398-.121.771-.277 1.118-.468.346-.191.65-.425.91-.702.277-.277.485-.589.624-.936l1.976.546c-.226.503-.538.962-.936 1.378-.382.416-.832.78-1.352 1.092-.503.295-1.066.529-1.69.702s-1.274.26-1.95.26zm4.654-7.956c-.052-.641-.217-1.231-.494-1.768-.26-.555-.598-1.023-1.014-1.404-.399-.381-.867-.676-1.404-.884-.538-.225-1.11-.338-1.716-.338-.607 0-1.179.113-1.716.338-.538.208-1.014.511-1.43.91-.399.381-.728.841-.988 1.378-.243.537-.39 1.127-.442 1.768zm10.629 7.956c-1.023 0-1.959-.191-2.808-.572-.832-.381-1.551-.893-2.158-1.534-.589-.641-1.049-1.387-1.378-2.236s-.494-1.742-.494-2.678c0-.953.165-1.855.494-2.704.347-.849.815-1.595 1.404-2.236.607-.641 1.326-1.153 2.158-1.534.849-.381 1.777-.572 2.782-.572s1.933.191 2.782.572 1.569.893 2.158 1.534c.607.641 1.075 1.387 1.404 2.236.347.849.52 1.751.52 2.704 0 .936-.165 1.829-.494 2.678s-.797 1.595-1.404 2.236-1.335 1.153-2.184 1.534c-.832.381-1.759.572-2.782.572zm-4.498-6.994c0 .711.113 1.369.338 1.976.243.607.563 1.135.962 1.586.416.451.893.806 1.43 1.066.555.26 1.144.39 1.768.39s1.205-.13 1.742-.39c.555-.26 1.04-.615 1.456-1.066.416-.468.737-1.005.962-1.612.243-.624.364-1.291.364-2.002 0-.693-.121-1.343-.364-1.95-.225-.624-.546-1.161-.962-1.612-.416-.468-.901-.832-1.456-1.092-.537-.26-1.118-.39-1.742-.39s-1.213.139-1.768.416c-.537.26-1.014.624-1.43 1.092-.399.451-.719.988-.962 1.612-.225.607-.338 1.265-.338 1.976zm21.441 6.994c-1.127 0-2.124-.277-2.99-.832-.85-.555-1.526-1.257-2.028-2.106v8.216h-2.288v-19.11h2.028v2.548c.537-.832 1.23-1.499 2.08-2.002.866-.52 1.82-.78 2.86-.78.936 0 1.794.191 2.574.572s1.456.901 2.028 1.56c.572.641 1.014 1.387 1.326 2.236.329.849.494 1.733.494 2.652 0 .971-.148 1.889-.442 2.756-.295.849-.711 1.595-1.248 2.236-.538.624-1.179 1.127-1.924 1.508-.746.364-1.569.546-2.47.546zm-.702-1.976c.676 0 1.282-.139 1.82-.416.554-.295 1.022-.676 1.404-1.144.398-.485.702-1.031.91-1.638s.312-1.231.312-1.872c0-.676-.122-1.317-.364-1.924-.243-.624-.572-1.161-.988-1.612-.416-.468-.91-.832-1.482-1.092-.555-.277-1.162-.416-1.82-.416-.416 0-.85.087-1.3.26-.434.156-.85.373-1.248.65-.382.26-.72.581-1.014.962-.278.364-.46.754-.546 1.17v3.874c.19.451.433.875.728 1.274.294.381.632.719 1.014 1.014.381.277.788.503 1.222.676.433.156.884.234 1.352.234zm9.647-17.264h2.288v15.47c0 .503.13.901.39 1.196.277.277.658.416 1.144.416.19 0 .416-.026.676-.078.26-.069.502-.147.728-.234l.364 1.846c-.382.156-.832.286-1.352.39s-.98.156-1.378.156c-.884 0-1.586-.251-2.106-.754-.503-.503-.754-1.205-.754-2.106zm13.393 19.24c-1.022 0-1.958-.182-2.808-.546-.849-.381-1.577-.893-2.184-1.534-.606-.641-1.083-1.387-1.43-2.236-.329-.867-.494-1.777-.494-2.73s.165-1.855.494-2.704c.347-.849.824-1.595 1.43-2.236.624-.641 1.361-1.144 2.21-1.508.85-.381 1.786-.572 2.808-.572 1.023 0 1.95.191 2.782.572.85.381 1.569.893 2.158 1.534.59.624 1.04 1.361 1.352 2.21.33.832.494 1.699.494 2.6 0 .191-.008.364-.026.52 0 .156-.008.277-.026.364h-11.258c.052.676.208 1.291.468 1.846s.598 1.031 1.014 1.43.884.711 1.404.936c.538.225 1.101.338 1.69.338.416 0 .824-.052 1.222-.156.399-.121.772-.277 1.118-.468.347-.191.65-.425.91-.702.278-.277.486-.589.624-.936l1.976.546c-.225.503-.537.962-.936 1.378-.381.416-.832.78-1.352 1.092-.502.295-1.066.529-1.69.702s-1.274.26-1.95.26zm4.654-7.956c-.052-.641-.216-1.231-.494-1.768-.26-.555-.598-1.023-1.014-1.404-.398-.381-.866-.676-1.404-.884-.537-.225-1.109-.338-1.716-.338-.606 0-1.178.113-1.716.338-.537.208-1.014.511-1.43.91-.398.381-.728.841-.988 1.378-.242.537-.39 1.127-.442 1.768zm-76.828 38.02c-.139.069-.321.156-.546.26-.226.087-.486.182-.78.286-.278.087-.59.156-.9363.208-.3293.069-.676.104-1.04.104-.832 0-1.5513-.225-2.158-.676-.6066-.468-.91-1.187-.91-2.158v-9.126h-1.846v-1.794h1.846v-4.524h2.288v4.524h3.0423v1.794h-3.0423v8.424c.0347.503.1994.867.494 1.092.2947.225.6414.338 1.04.338.4503 0 .8583-.069 1.2223-.208.381-.156.641-.277.78-.364zm9.296-10.894c-1.144.035-2.158.329-3.042.884-.866.555-1.482 1.326-1.846 2.314v8.372h-2.288v-13.572h2.132v3.146c.468-.936 1.084-1.69 1.846-2.262.763-.589 1.578-.919 2.444-.988h.442c.122 0 .226.009.312.026zm6.456 11.83c-1.422 0-2.496-.477-3.224-1.43s-1.092-2.375-1.092-4.264v-8.138h2.288v7.696c0 2.773.962 4.16 2.886 4.16.936 0 1.811-.295 2.626-.884.832-.607 1.447-1.43 1.846-2.47v-8.502h2.288v10.764c0 .537.242.815.728.832v1.976c-.26.035-.468.052-.624.052-.139.017-.278.026-.416.026-.451 0-.832-.13-1.144-.39-.295-.277-.451-.615-.468-1.014l-.052-1.586c-.607 1.023-1.404 1.811-2.392 2.366-.988.537-2.072.806-3.25.806zm16.187 0c-1.092 0-2.167-.165-3.224-.494-1.057-.347-1.967-.841-2.73-1.482l.988-1.534c.797.607 1.595 1.066 2.392 1.378.797.295 1.638.442 2.522.442.988 0 1.768-.191 2.34-.572.589-.399.884-.953.884-1.664 0-.329-.078-.607-.234-.832-.156-.243-.39-.451-.702-.624s-.711-.329-1.196-.468-1.049-.286-1.69-.442c-.815-.208-1.517-.407-2.106-.598s-1.075-.416-1.456-.676-.659-.572-.832-.936-.26-.815-.26-1.352c0-.676.13-1.274.39-1.794.277-.537.65-.979 1.118-1.326.468-.364 1.014-.633 1.638-.806.641-.191 1.326-.286 2.054-.286 1.023 0 1.976.165 2.86.494s1.629.763 2.236 1.3l-1.04 1.378c-.572-.503-1.213-.875-1.924-1.118-.711-.26-1.439-.39-2.184-.39-.832 0-1.543.182-2.132.546-.572.347-.858.91-.858 1.69 0 .312.052.572.156.78.121.208.312.39.572.546s.589.295.988.416c.416.121.91.251 1.482.39.901.208 1.681.425 2.34.65.676.208 1.231.459 1.664.754.451.295.78.641.988 1.04.225.399.338.884.338 1.456 0 1.265-.485 2.271-1.456 3.016s-2.279 1.118-3.926 1.118zm15.11-.936c-.139.069-.321.156-.546.26-.226.087-.486.182-.78.286-.278.087-.59.156-.936.208-.33.069-.676.104-1.04.104-.832 0-1.552-.225-2.158-.676-.607-.468-.91-1.187-.91-2.158v-9.126h-1.846v-1.794h1.846v-4.524h2.288v4.524h3.042v1.794h-3.042v8.424c.034.503.199.867.494 1.092.294.225.641.338 1.04.338.45 0 .858-.069 1.222-.208.381-.156.641-.277.78-.364zm12.882.936c-1.421 0-2.496-.477-3.224-1.43s-1.092-2.375-1.092-4.264v-8.138h2.288v7.696c0 2.773.962 4.16 2.886 4.16.936 0 1.812-.295 2.626-.884.832-.607 1.448-1.43 1.846-2.47v-8.502h2.288v10.764c0 .537.243.815.728.832v1.976c-.26.035-.468.052-.624.052-.138.017-.277.026-.416.026-.45 0-.832-.13-1.144-.39-.294-.277-.45-.615-.468-1.014l-.052-1.586c-.606 1.023-1.404 1.811-2.392 2.366-.988.537-2.071.806-3.25.806zm16.188 0c-1.092 0-2.167-.165-3.224-.494-1.058-.347-1.968-.841-2.73-1.482l.988-1.534c.797.607 1.594 1.066 2.392 1.378.797.295 1.638.442 2.522.442.988 0 1.768-.191 2.34-.572.589-.399.884-.953.884-1.664 0-.329-.078-.607-.234-.832-.156-.243-.39-.451-.702-.624s-.711-.329-1.196-.468c-.486-.139-1.049-.286-1.69-.442-.815-.208-1.517-.407-2.106-.598-.59-.191-1.075-.416-1.456-.676-.382-.26-.659-.572-.832-.936-.174-.364-.26-.815-.26-1.352 0-.676.13-1.274.39-1.794.277-.537.65-.979 1.118-1.326.468-.364 1.014-.633 1.638-.806.641-.191 1.326-.286 2.054-.286 1.022 0 1.976.165 2.86.494s1.629.763 2.236 1.3l-1.04 1.378c-.572-.503-1.214-.875-1.924-1.118-.711-.26-1.439-.39-2.184-.39-.832 0-1.543.182-2.132.546-.572.347-.858.91-.858 1.69 0 .312.052.572.156.78.121.208.312.39.572.546s.589.295.988.416c.416.121.91.251 1.482.39.901.208 1.681.425 2.34.65.676.208 1.23.459 1.664.754.45.295.78.641.988 1.04.225.399.338.884.338 1.456 0 1.265-.486 2.271-1.456 3.016-.971.745-2.28 1.118-3.926 1.118z" fill="#fff"/><g filter="url(#a)"><circle cx="139" cy="139" r="110" shape-rendering="crispEdges" stroke="url(#b)" stroke-width="10"/></g></svg>