<svg fill="none" height="712" viewBox="0 0 714 712" width="714" xmlns="http://www.w3.org/2000/svg" xmlns:xlink="http://www.w3.org/1999/xlink"><filter id="a" color-interpolation-filters="sRGB" filterUnits="userSpaceOnUse" height="711.39" width="712.371" x=".960938" y=".103394"><feFlood flood-opacity="0" result="BackgroundImageFix"/><feColorMatrix in="SourceAlpha" result="hardAlpha" type="matrix" values="0 0 0 0 0 0 0 0 0 0 0 0 0 0 0 0 0 0 127 0"/><feOffset/><feGaussianBlur stdDeviation="12"/><feComposite in2="hardAlpha" operator="out"/><feColorMatrix type="matrix" values="0 0 0 0 0.0883301 0 0 0 0 1 0 0 0 0 0.69611 0 0 0 0.4 0"/><feBlend in2="BackgroundImageFix" mode="normal" result="effect1_dropShadow_56_73"/><feBlend in="SourceGraphic" in2="effect1_dropShadow_56_73" mode="normal" result="shape"/><feColorMatrix in="SourceAlpha" result="hardAlpha" type="matrix" values="0 0 0 0 0 0 0 0 0 0 0 0 0 0 0 0 0 0 127 0"/><feOffset/><feGaussianBlur stdDeviation="6"/><feComposite in2="hardAlpha" k2="-1" k3="1" operator="arithmetic"/><feColorMatrix type="matrix" values="0 0 0 0 1 0 0 0 0 1 0 0 0 0 1 0 0 0 0.25 0"/><feBlend in2="shape" mode="normal" result="effect2_innerShadow_56_73"/></filter><linearGradient id="b" gradientUnits="userSpaceOnUse" x1="190.825" x2="523.229" y1="67.1758" y2="642.917"><stop offset="0" stop-color="#006745"/><stop offset="1" stop-color="#17ffb2"/></linearGradient><g fill="url(#b)" filter="url(#a)"><path d="m503.628 56.843-7.037 7.7036-43.511 30.5703-1.011 28.1711-11.126 2.441-55.509-11.838-15.179-14.0586-17.631-14.1584-34.827-7.3334-30.126 10.3314 6.53 12.748 41.458 10.567 21.8 7.793-10.187 16.046-13.896 3.356-22.08 2.852-7.68-14.699-28.892 3.877 11.727 38.214-20.452 18.919 13.194 17.477 34.067-11.8-12.067-33.131 27.467-10.874 15.744.098 18.876-10.898 27.86 18.417 54.314 14.972 5.287 14.956-29.65 12.426-33.808 51.652-10.566 61.055 6.067 20.834-12.333 7.121-29.097 2.676-16.206 23.48 19.149 20.343 3.248-16.805 16.773-10.393 11.019 21.837 16.54-4.027 23.292 7.713 19.327-19.809 28.756-11.055 35.355-9.441 16.321-7.028 42.896 14.452 66.995.539 3.332 80.472-24.979 35.582 7.432 42.796-30.362 61.513 5.723 22.059c108.741-103.344 137.195-271.05 58.877-406.702-34.245-59.228-84.042-104.0026-141.214-132.009z"/><path d="m476.973 486.384-43.407-26.766-3.908-51.208-22.565 5.356-34.135-9.224-54.069 16.898-35.082-24.071 11.395 19.738-7 4.041-73.545-32.114-26.526-45.945-58.627-31.711-43.0738 36.28-32.3461 18.675-22.4318-1.27 11.2623-28.445-17.9472 16.739c-.3498 57.038 13.6565 114.902 44.2454 167.884 91.7672 158.944 295.0442 213.459 454.0072 121.682 12.242-7.068 23.622-15.08 34.672-23.366l-23.141-33.14s-16.688-59.419-17.703-61.178c-1.045-1.767-40.075-38.855-40.075-38.855z"/><path d="m63.5442 264.425 47.0148-36.649 16.108-26.527 30.931-7.668 41.016-26.808 1.341-31.197 23.178-8.738 48.622-34.4991 5.152-23.793 12.273-24.8746 30.714-12.0638 9.4-7.5041c-47.336 3.9695-94.605 17.7474-138.497 43.0883-89.341 51.5813-145.715 138.4233-161.5421 232.8163l.1467-.085zm155.9488-175.6331 20.053-33.1537 25.172.006-15.316 36.5764-24.584 17.6874-16.148-.841zm-85.703 52.6331 16.096-2.085 13.867-15.214 18.513 10.692-33.272 32.942-25.227-.145s11.58-22.52 10.023-26.19z"/></g></svg>