<svg width="278" height="335" viewBox="0 0 278 335" fill="none" xmlns="http://www.w3.org/2000/svg">
<path d="M89.27 164V151.33H65.89V145.8L91.16 114.3H95.43V145.73H101.59V151.33H95.43V164H89.27ZM72.33 145.73H89.9V123.75L72.33 145.73ZM128.55 164.7C125.097 164.653 122.064 163.837 119.45 162.25C116.884 160.663 114.714 158.657 112.94 156.23C111.214 153.757 109.907 151.05 109.02 148.11C108.134 145.17 107.69 142.3 107.69 139.5C107.69 136.513 108.157 133.527 109.09 130.54C110.07 127.507 111.47 124.8 113.29 122.42C115.11 119.993 117.304 118.033 119.87 116.54C122.437 115.047 125.33 114.3 128.55 114.3C132.004 114.3 135.014 115.117 137.58 116.75C140.194 118.337 142.364 120.367 144.09 122.84C145.864 125.313 147.194 128.043 148.08 131.03C148.967 133.97 149.41 136.793 149.41 139.5C149.41 142.533 148.92 145.543 147.94 148.53C147.007 151.517 145.63 154.2 143.81 156.58C141.99 158.96 139.797 160.897 137.23 162.39C134.664 163.883 131.77 164.653 128.55 164.7ZM114.06 139.5C114.107 141.787 114.434 144.097 115.04 146.43C115.694 148.717 116.627 150.793 117.84 152.66C119.054 154.527 120.547 156.067 122.32 157.28C124.094 158.447 126.17 159.03 128.55 159.03C131.024 159.03 133.17 158.4 134.99 157.14C136.81 155.88 138.304 154.293 139.47 152.38C140.684 150.467 141.57 148.367 142.13 146.08C142.737 143.747 143.04 141.553 143.04 139.5C143.04 137.213 142.714 134.927 142.06 132.64C141.407 130.307 140.474 128.207 139.26 126.34C138.047 124.473 136.53 122.957 134.71 121.79C132.89 120.577 130.837 119.97 128.55 119.97C126.077 119.97 123.93 120.6 122.11 121.86C120.29 123.12 118.774 124.73 117.56 126.69C116.394 128.603 115.507 130.703 114.9 132.99C114.34 135.277 114.06 137.447 114.06 139.5ZM201.66 164V125.57L185.14 155.04H181.57L164.98 125.57V164H158.68V114.3H165.33L183.32 146.57L201.38 114.3H207.96V164H201.66Z" fill="white"/>
<path d="M61.9605 281.62H55.5905V298H53.2505V281.62H46.8805V279.54H61.9605V281.62ZM67.2886 298.26C66.266 298.26 65.33 298.069 64.4806 297.688C63.6486 297.307 62.9293 296.795 62.3226 296.154C61.7333 295.513 61.274 294.767 60.9446 293.918C60.6153 293.069 60.4506 292.176 60.4506 291.24C60.4506 290.287 60.6153 289.385 60.9446 288.536C61.2913 287.687 61.7593 286.941 62.3486 286.3C62.9553 285.659 63.6746 285.147 64.5066 284.766C65.356 284.385 66.2833 284.194 67.2886 284.194C68.294 284.194 69.2213 284.385 70.0706 284.766C70.92 285.147 71.6393 285.659 72.2286 286.3C72.8353 286.941 73.3033 287.687 73.6326 288.536C73.9793 289.385 74.1526 290.287 74.1526 291.24C74.1526 292.176 73.988 293.069 73.6586 293.918C73.3293 294.767 72.8613 295.513 72.2546 296.154C71.648 296.795 70.92 297.307 70.0706 297.688C69.2386 298.069 68.3113 298.26 67.2886 298.26ZM62.7906 291.266C62.7906 291.977 62.9033 292.635 63.1286 293.242C63.3713 293.849 63.692 294.377 64.0906 294.828C64.5066 295.279 64.9833 295.634 65.5206 295.894C66.0753 296.154 66.6646 296.284 67.2886 296.284C67.9126 296.284 68.4933 296.154 69.0306 295.894C69.5853 295.634 70.0706 295.279 70.4866 294.828C70.9026 294.36 71.2233 293.823 71.4486 293.216C71.6913 292.592 71.8126 291.925 71.8126 291.214C71.8126 290.521 71.6913 289.871 71.4486 289.264C71.2233 288.64 70.9026 288.103 70.4866 287.652C70.0706 287.184 69.5853 286.82 69.0306 286.56C68.4933 286.3 67.9126 286.17 67.2886 286.17C66.6646 286.17 66.0753 286.309 65.5206 286.586C64.9833 286.846 64.5066 287.21 64.0906 287.678C63.692 288.129 63.3713 288.666 63.1286 289.29C62.9033 289.897 62.7906 290.555 62.7906 291.266ZM83.742 297.324C83.6033 297.393 83.4213 297.48 83.196 297.584C82.9706 297.671 82.7106 297.766 82.416 297.87C82.1386 297.957 81.8266 298.026 81.48 298.078C81.1506 298.147 80.804 298.182 80.44 298.182C79.608 298.182 78.8886 297.957 78.282 297.506C77.6753 297.038 77.372 296.319 77.372 295.348V286.222H75.526V284.428H77.372V279.904H79.66V284.428H82.702V286.222H79.66V294.646C79.6946 295.149 79.8593 295.513 80.154 295.738C80.4486 295.963 80.7953 296.076 81.194 296.076C81.6446 296.076 82.052 296.007 82.416 295.868C82.7973 295.712 83.0573 295.591 83.196 295.504L83.742 297.324ZM89.3466 298.26C88.7053 298.26 88.1073 298.156 87.5526 297.948C86.9979 297.723 86.5126 297.419 86.0966 297.038C85.6979 296.657 85.3773 296.215 85.1346 295.712C84.9093 295.192 84.7966 294.629 84.7966 294.022C84.7966 293.398 84.9353 292.835 85.2126 292.332C85.4899 291.812 85.8799 291.37 86.3826 291.006C86.9026 290.642 87.5093 290.356 88.2026 290.148C88.9133 289.94 89.6846 289.836 90.5166 289.836C91.1753 289.836 91.8426 289.897 92.5186 290.018C93.1946 290.139 93.7926 290.304 94.3126 290.512V289.42C94.3126 288.311 94.0006 287.444 93.3766 286.82C92.7526 286.179 91.8686 285.858 90.7246 285.858C89.3553 285.858 87.9166 286.387 86.4086 287.444L85.6546 285.962C87.4053 284.783 89.1646 284.194 90.9326 284.194C92.7179 284.194 94.1046 284.671 95.0926 285.624C96.0979 286.577 96.6006 287.921 96.6006 289.654V295.192C96.6006 295.729 96.8433 296.007 97.3286 296.024V298C97.0859 298.035 96.8866 298.061 96.7306 298.078C96.5746 298.095 96.4099 298.104 96.2366 298.104C95.7859 298.104 95.4219 297.974 95.1446 297.714C94.8846 297.437 94.7286 297.107 94.6766 296.726L94.6246 295.764C94.0179 296.579 93.2466 297.203 92.3106 297.636C91.3919 298.052 90.4039 298.26 89.3466 298.26ZM89.9446 296.544C90.7593 296.544 91.5133 296.397 92.2066 296.102C92.9173 295.79 93.4546 295.383 93.8186 294.88C94.1479 294.551 94.3126 294.213 94.3126 293.866V291.864C93.2033 291.431 92.0506 291.214 90.8546 291.214C89.7106 291.214 88.7746 291.457 88.0466 291.942C87.3359 292.427 86.9806 293.06 86.9806 293.84C86.9806 294.221 87.0499 294.577 87.1886 294.906C87.3446 295.235 87.5526 295.521 87.8126 295.764C88.0899 296.007 88.4106 296.197 88.7746 296.336C89.1386 296.475 89.5286 296.544 89.9446 296.544ZM100.311 279.02H102.599V294.49C102.599 294.993 102.729 295.391 102.989 295.686C103.266 295.963 103.648 296.102 104.133 296.102C104.324 296.102 104.549 296.076 104.809 296.024C105.069 295.955 105.312 295.877 105.537 295.79L105.901 297.636C105.52 297.792 105.069 297.922 104.549 298.026C104.029 298.13 103.57 298.182 103.171 298.182C102.287 298.182 101.585 297.931 101.065 297.428C100.562 296.925 100.311 296.223 100.311 295.322V279.02ZM118.896 298.156C117.977 298.156 117.128 297.965 116.348 297.584C115.585 297.203 114.926 296.691 114.372 296.05C113.817 295.409 113.384 294.672 113.072 293.84C112.777 293.008 112.63 292.141 112.63 291.24C112.63 290.287 112.777 289.385 113.072 288.536C113.384 287.669 113.817 286.915 114.372 286.274C114.926 285.633 115.585 285.13 116.348 284.766C117.128 284.385 117.986 284.194 118.922 284.194C120.066 284.194 121.054 284.471 121.886 285.026C122.718 285.581 123.42 286.283 123.992 287.132V284.428H126.02V297.844C126.02 298.815 125.838 299.664 125.474 300.392C125.11 301.137 124.616 301.761 123.992 302.264C123.368 302.767 122.631 303.148 121.782 303.408C120.95 303.668 120.057 303.798 119.104 303.798C117.561 303.798 116.304 303.529 115.334 302.992C114.38 302.472 113.583 301.744 112.942 300.808L114.268 299.638C114.805 300.435 115.498 301.033 116.348 301.432C117.197 301.831 118.116 302.03 119.104 302.03C119.728 302.03 120.317 301.943 120.872 301.77C121.444 301.597 121.938 301.337 122.354 300.99C122.77 300.643 123.099 300.21 123.342 299.69C123.602 299.17 123.732 298.555 123.732 297.844V295.452C123.472 295.868 123.16 296.249 122.796 296.596C122.449 296.925 122.068 297.211 121.652 297.454C121.236 297.679 120.794 297.853 120.326 297.974C119.858 298.095 119.381 298.156 118.896 298.156ZM119.598 296.284C120.083 296.284 120.551 296.197 121.002 296.024C121.452 295.851 121.868 295.625 122.25 295.348C122.631 295.053 122.952 294.724 123.212 294.36C123.472 293.996 123.645 293.623 123.732 293.242V289.342C123.541 288.874 123.29 288.449 122.978 288.068C122.683 287.687 122.345 287.357 121.964 287.08C121.582 286.785 121.166 286.56 120.716 286.404C120.282 286.248 119.84 286.17 119.39 286.17C118.696 286.17 118.072 286.317 117.518 286.612C116.98 286.907 116.521 287.297 116.14 287.782C115.758 288.267 115.464 288.822 115.256 289.446C115.048 290.053 114.944 290.668 114.944 291.292C114.944 291.968 115.065 292.609 115.308 293.216C115.55 293.823 115.88 294.351 116.296 294.802C116.712 295.253 117.197 295.617 117.752 295.894C118.324 296.154 118.939 296.284 119.598 296.284ZM129.712 298V284.428H132V298H129.712ZM129.712 281.88V279.02H132V281.88H129.712ZM141.112 298.156C140.194 298.156 139.344 297.965 138.564 297.584C137.802 297.203 137.143 296.691 136.588 296.05C136.034 295.409 135.6 294.672 135.288 293.84C134.994 293.008 134.846 292.141 134.846 291.24C134.846 290.287 134.994 289.385 135.288 288.536C135.6 287.669 136.034 286.915 136.588 286.274C137.143 285.633 137.802 285.13 138.564 284.766C139.344 284.385 140.202 284.194 141.138 284.194C142.282 284.194 143.27 284.471 144.102 285.026C144.934 285.581 145.636 286.283 146.208 287.132V284.428H148.236V297.844C148.236 298.815 148.054 299.664 147.69 300.392C147.326 301.137 146.832 301.761 146.208 302.264C145.584 302.767 144.848 303.148 143.998 303.408C143.166 303.668 142.274 303.798 141.32 303.798C139.778 303.798 138.521 303.529 137.55 302.992C136.597 302.472 135.8 301.744 135.158 300.808L136.484 299.638C137.022 300.435 137.715 301.033 138.564 301.432C139.414 301.831 140.332 302.03 141.32 302.03C141.944 302.03 142.534 301.943 143.088 301.77C143.66 301.597 144.154 301.337 144.57 300.99C144.986 300.643 145.316 300.21 145.558 299.69C145.818 299.17 145.948 298.555 145.948 297.844V295.452C145.688 295.868 145.376 296.249 145.012 296.596C144.666 296.925 144.284 297.211 143.868 297.454C143.452 297.679 143.01 297.853 142.542 297.974C142.074 298.095 141.598 298.156 141.112 298.156ZM141.814 296.284C142.3 296.284 142.768 296.197 143.218 296.024C143.669 295.851 144.085 295.625 144.466 295.348C144.848 295.053 145.168 294.724 145.428 294.36C145.688 293.996 145.862 293.623 145.948 293.242V289.342C145.758 288.874 145.506 288.449 145.194 288.068C144.9 287.687 144.562 287.357 144.18 287.08C143.799 286.785 143.383 286.56 142.932 286.404C142.499 286.248 142.057 286.17 141.606 286.17C140.913 286.17 140.289 286.317 139.734 286.612C139.197 286.907 138.738 287.297 138.356 287.782C137.975 288.267 137.68 288.822 137.472 289.446C137.264 290.053 137.16 290.668 137.16 291.292C137.16 291.968 137.282 292.609 137.524 293.216C137.767 293.823 138.096 294.351 138.512 294.802C138.928 295.253 139.414 295.617 139.968 295.894C140.54 296.154 141.156 296.284 141.814 296.284ZM155.413 298.26C154.772 298.26 154.174 298.156 153.619 297.948C153.064 297.723 152.579 297.419 152.163 297.038C151.764 296.657 151.444 296.215 151.201 295.712C150.976 295.192 150.863 294.629 150.863 294.022C150.863 293.398 151.002 292.835 151.279 292.332C151.556 291.812 151.946 291.37 152.449 291.006C152.969 290.642 153.576 290.356 154.269 290.148C154.98 289.94 155.751 289.836 156.583 289.836C157.242 289.836 157.909 289.897 158.585 290.018C159.261 290.139 159.859 290.304 160.379 290.512V289.42C160.379 288.311 160.067 287.444 159.443 286.82C158.819 286.179 157.935 285.858 156.791 285.858C155.422 285.858 153.983 286.387 152.475 287.444L151.721 285.962C153.472 284.783 155.231 284.194 156.999 284.194C158.784 284.194 160.171 284.671 161.159 285.624C162.164 286.577 162.667 287.921 162.667 289.654V295.192C162.667 295.729 162.91 296.007 163.395 296.024V298C163.152 298.035 162.953 298.061 162.797 298.078C162.641 298.095 162.476 298.104 162.303 298.104C161.852 298.104 161.488 297.974 161.211 297.714C160.951 297.437 160.795 297.107 160.743 296.726L160.691 295.764C160.084 296.579 159.313 297.203 158.377 297.636C157.458 298.052 156.47 298.26 155.413 298.26ZM156.011 296.544C156.826 296.544 157.58 296.397 158.273 296.102C158.984 295.79 159.521 295.383 159.885 294.88C160.214 294.551 160.379 294.213 160.379 293.866V291.864C159.27 291.431 158.117 291.214 156.921 291.214C155.777 291.214 154.841 291.457 154.113 291.942C153.402 292.427 153.047 293.06 153.047 293.84C153.047 294.221 153.116 294.577 153.255 294.906C153.411 295.235 153.619 295.521 153.879 295.764C154.156 296.007 154.477 296.197 154.841 296.336C155.205 296.475 155.595 296.544 156.011 296.544ZM173.293 298.26C172.236 298.26 171.274 298 170.407 297.48C169.541 296.96 168.856 296.284 168.353 295.452V298H166.325V279.02H168.613V287.132C169.185 286.248 169.887 285.537 170.719 285C171.551 284.463 172.522 284.194 173.631 284.194C174.567 284.194 175.408 284.393 176.153 284.792C176.899 285.191 177.531 285.719 178.051 286.378C178.589 287.019 178.996 287.773 179.273 288.64C179.568 289.489 179.715 290.365 179.715 291.266C179.715 292.219 179.551 293.121 179.221 293.97C178.892 294.819 178.441 295.565 177.869 296.206C177.297 296.83 176.613 297.333 175.815 297.714C175.035 298.078 174.195 298.26 173.293 298.26ZM172.721 296.284C173.397 296.284 174.021 296.145 174.593 295.868C175.165 295.591 175.659 295.218 176.075 294.75C176.491 294.282 176.812 293.753 177.037 293.164C177.263 292.557 177.375 291.925 177.375 291.266C177.375 290.607 177.263 289.975 177.037 289.368C176.829 288.744 176.526 288.198 176.127 287.73C175.746 287.262 175.278 286.889 174.723 286.612C174.186 286.317 173.588 286.17 172.929 286.17C172.444 286.17 171.985 286.257 171.551 286.43C171.118 286.603 170.711 286.837 170.329 287.132C169.965 287.409 169.636 287.739 169.341 288.12C169.064 288.501 168.821 288.909 168.613 289.342V293.268C168.7 293.701 168.882 294.1 169.159 294.464C169.454 294.828 169.792 295.149 170.173 295.426C170.572 295.686 170.988 295.894 171.421 296.05C171.872 296.206 172.305 296.284 172.721 296.284ZM182.692 301.692C182.917 301.727 183.142 301.753 183.368 301.77C183.593 301.787 183.766 301.796 183.888 301.796C184.096 301.796 184.278 301.744 184.434 301.64C184.607 301.553 184.772 301.371 184.928 301.094C185.101 300.817 185.292 300.427 185.5 299.924C185.708 299.439 185.968 298.797 186.28 298L180.534 284.428H182.9L187.528 295.946L191.74 284.428H193.924L187.32 301.562C187.077 302.169 186.67 302.697 186.098 303.148C185.543 303.616 184.772 303.85 183.784 303.85C183.628 303.85 183.463 303.841 183.29 303.824C183.134 303.807 182.934 303.772 182.692 303.72V301.692ZM203.256 297.324C203.117 297.393 202.935 297.48 202.71 297.584C202.484 297.671 202.224 297.766 201.93 297.87C201.652 297.957 201.34 298.026 200.994 298.078C200.664 298.147 200.318 298.182 199.954 298.182C199.122 298.182 198.402 297.957 197.796 297.506C197.189 297.038 196.886 296.319 196.886 295.348V286.222H195.04V284.428H196.886V279.904H199.174V284.428H202.216V286.222H199.174V294.646C199.208 295.149 199.373 295.513 199.668 295.738C199.962 295.963 200.309 296.076 200.708 296.076C201.158 296.076 201.566 296.007 201.93 295.868C202.311 295.712 202.571 295.591 202.71 295.504L203.256 297.324ZM211.205 298.26C210.182 298.26 209.246 298.078 208.397 297.714C207.547 297.333 206.819 296.821 206.213 296.18C205.606 295.539 205.129 294.793 204.783 293.944C204.453 293.077 204.289 292.167 204.289 291.214C204.289 290.261 204.453 289.359 204.783 288.51C205.129 287.661 205.606 286.915 206.213 286.274C206.837 285.633 207.573 285.13 208.423 284.766C209.272 284.385 210.208 284.194 211.231 284.194C212.253 284.194 213.181 284.385 214.013 284.766C214.862 285.147 215.581 285.659 216.171 286.3C216.76 286.924 217.211 287.661 217.523 288.51C217.852 289.342 218.017 290.209 218.017 291.11C218.017 291.301 218.008 291.474 217.991 291.63C217.991 291.786 217.982 291.907 217.965 291.994H206.707C206.759 292.67 206.915 293.285 207.175 293.84C207.435 294.395 207.773 294.871 208.189 295.27C208.605 295.669 209.073 295.981 209.593 296.206C210.13 296.431 210.693 296.544 211.283 296.544C211.699 296.544 212.106 296.492 212.505 296.388C212.903 296.267 213.276 296.111 213.623 295.92C213.969 295.729 214.273 295.495 214.533 295.218C214.81 294.941 215.018 294.629 215.157 294.282L217.133 294.828C216.907 295.331 216.595 295.79 216.197 296.206C215.815 296.622 215.365 296.986 214.845 297.298C214.342 297.593 213.779 297.827 213.155 298C212.531 298.173 211.881 298.26 211.205 298.26ZM215.859 290.304C215.807 289.663 215.642 289.073 215.365 288.536C215.105 287.981 214.767 287.513 214.351 287.132C213.952 286.751 213.484 286.456 212.947 286.248C212.409 286.023 211.837 285.91 211.231 285.91C210.624 285.91 210.052 286.023 209.515 286.248C208.977 286.456 208.501 286.759 208.085 287.158C207.686 287.539 207.357 287.999 207.097 288.536C206.854 289.073 206.707 289.663 206.655 290.304H215.859ZM225.318 298.26C224.226 298.26 223.151 298.095 222.094 297.766C221.037 297.419 220.127 296.925 219.364 296.284L220.352 294.75C221.149 295.357 221.947 295.816 222.744 296.128C223.541 296.423 224.382 296.57 225.266 296.57C226.254 296.57 227.034 296.379 227.606 295.998C228.195 295.599 228.49 295.045 228.49 294.334C228.49 294.005 228.412 293.727 228.256 293.502C228.1 293.259 227.866 293.051 227.554 292.878C227.242 292.705 226.843 292.549 226.358 292.41C225.873 292.271 225.309 292.124 224.668 291.968C223.853 291.76 223.151 291.561 222.562 291.37C221.973 291.179 221.487 290.954 221.106 290.694C220.725 290.434 220.447 290.122 220.274 289.758C220.101 289.394 220.014 288.943 220.014 288.406C220.014 287.73 220.144 287.132 220.404 286.612C220.681 286.075 221.054 285.633 221.522 285.286C221.99 284.922 222.536 284.653 223.16 284.48C223.801 284.289 224.486 284.194 225.214 284.194C226.237 284.194 227.19 284.359 228.074 284.688C228.958 285.017 229.703 285.451 230.31 285.988L229.27 287.366C228.698 286.863 228.057 286.491 227.346 286.248C226.635 285.988 225.907 285.858 225.162 285.858C224.33 285.858 223.619 286.04 223.03 286.404C222.458 286.751 222.172 287.314 222.172 288.094C222.172 288.406 222.224 288.666 222.328 288.874C222.449 289.082 222.64 289.264 222.9 289.42C223.16 289.576 223.489 289.715 223.888 289.836C224.304 289.957 224.798 290.087 225.37 290.226C226.271 290.434 227.051 290.651 227.71 290.876C228.386 291.084 228.941 291.335 229.374 291.63C229.825 291.925 230.154 292.271 230.362 292.67C230.587 293.069 230.7 293.554 230.7 294.126C230.7 295.391 230.215 296.397 229.244 297.142C228.273 297.887 226.965 298.26 225.318 298.26ZM41.2252 329.26C40.2025 329.26 39.2665 329.069 38.4172 328.688C37.5852 328.307 36.8658 327.795 36.2592 327.154C35.6698 326.513 35.2105 325.767 34.8812 324.918C34.5518 324.069 34.3872 323.176 34.3872 322.24C34.3872 321.287 34.5518 320.385 34.8812 319.536C35.2278 318.687 35.6958 317.941 36.2852 317.3C36.8918 316.659 37.6112 316.147 38.4432 315.766C39.2925 315.385 40.2198 315.194 41.2252 315.194C42.2305 315.194 43.1578 315.385 44.0072 315.766C44.8565 316.147 45.5758 316.659 46.1652 317.3C46.7718 317.941 47.2398 318.687 47.5692 319.536C47.9158 320.385 48.0892 321.287 48.0892 322.24C48.0892 323.176 47.9245 324.069 47.5952 324.918C47.2658 325.767 46.7978 326.513 46.1912 327.154C45.5845 327.795 44.8565 328.307 44.0072 328.688C43.1752 329.069 42.2478 329.26 41.2252 329.26ZM36.7272 322.266C36.7272 322.977 36.8398 323.635 37.0652 324.242C37.3078 324.849 37.6285 325.377 38.0272 325.828C38.4432 326.279 38.9198 326.634 39.4572 326.894C40.0118 327.154 40.6012 327.284 41.2252 327.284C41.8492 327.284 42.4298 327.154 42.9672 326.894C43.5218 326.634 44.0072 326.279 44.4232 325.828C44.8392 325.36 45.1598 324.823 45.3852 324.216C45.6278 323.592 45.7492 322.925 45.7492 322.214C45.7492 321.521 45.6278 320.871 45.3852 320.264C45.1598 319.64 44.8392 319.103 44.4232 318.652C44.0072 318.184 43.5218 317.82 42.9672 317.56C42.4298 317.3 41.8492 317.17 41.2252 317.17C40.6012 317.17 40.0118 317.309 39.4572 317.586C38.9198 317.846 38.4432 318.21 38.0272 318.678C37.6285 319.129 37.3078 319.666 37.0652 320.29C36.8398 320.897 36.7272 321.555 36.7272 322.266ZM51.3611 329V317.222H49.5151V315.428H51.3611V315.142C51.3611 313.461 51.7338 312.143 52.4791 311.19C53.2244 310.237 54.2384 309.76 55.5211 309.76C56.0584 309.76 56.5871 309.838 57.1071 309.994C57.6271 310.133 58.0951 310.332 58.5111 310.592L57.9391 312.282C57.6964 312.109 57.3931 311.97 57.0291 311.866C56.6824 311.762 56.3358 311.71 55.9891 311.71C55.2264 311.71 54.6458 311.996 54.2471 312.568C53.8484 313.14 53.6491 313.972 53.6491 315.064V315.428H57.2631V317.222H53.6491V329H51.3611ZM71.1274 329.26C70.1914 329.26 69.3247 329.069 68.5274 328.688C67.7301 328.307 67.0454 327.795 66.4734 327.154C65.9014 326.513 65.4507 325.767 65.1214 324.918C64.8094 324.069 64.6534 323.176 64.6534 322.24C64.6534 321.287 64.8007 320.385 65.0954 319.536C65.4074 318.669 65.8321 317.915 66.3694 317.274C66.9241 316.633 67.5741 316.13 68.3194 315.766C69.0821 315.385 69.9141 315.194 70.8154 315.194C71.9074 315.194 72.8781 315.48 73.7274 316.052C74.5941 316.624 75.2787 317.317 75.7814 318.132V310.02H78.0694V326.192C78.0694 326.729 78.3121 327.007 78.7974 327.024V329C78.5547 329.035 78.3554 329.061 78.1994 329.078C78.0607 329.095 77.9221 329.104 77.7834 329.104C77.3327 329.104 76.9341 328.957 76.5874 328.662C76.2581 328.35 76.0934 327.995 76.0934 327.596V326.452C75.5561 327.336 74.8367 328.029 73.9354 328.532C73.0514 329.017 72.1154 329.26 71.1274 329.26ZM71.6734 327.284C72.0894 327.284 72.5141 327.206 72.9474 327.05C73.3981 326.894 73.8141 326.677 74.1954 326.4C74.5941 326.123 74.9321 325.802 75.2094 325.438C75.5041 325.057 75.6947 324.658 75.7814 324.242V320.342C75.6254 319.909 75.3914 319.501 75.0794 319.12C74.7674 318.721 74.4121 318.383 74.0134 318.106C73.6321 317.811 73.2161 317.586 72.7654 317.43C72.3321 317.257 71.8987 317.17 71.4654 317.17C70.7894 317.17 70.1741 317.317 69.6194 317.612C69.0821 317.889 68.6141 318.271 68.2154 318.756C67.8341 319.224 67.5394 319.77 67.3314 320.394C67.1234 321.001 67.0194 321.625 67.0194 322.266C67.0194 322.942 67.1407 323.592 67.3834 324.216C67.6261 324.823 67.9554 325.351 68.3714 325.802C68.7874 326.253 69.2727 326.617 69.8274 326.894C70.3994 327.154 71.0147 327.284 71.6734 327.284ZM85.373 329.26C84.7316 329.26 84.1336 329.156 83.579 328.948C83.0243 328.723 82.539 328.419 82.123 328.038C81.7243 327.657 81.4036 327.215 81.161 326.712C80.9356 326.192 80.823 325.629 80.823 325.022C80.823 324.398 80.9616 323.835 81.239 323.332C81.5163 322.812 81.9063 322.37 82.409 322.006C82.929 321.642 83.5356 321.356 84.229 321.148C84.9396 320.94 85.711 320.836 86.543 320.836C87.2016 320.836 87.869 320.897 88.545 321.018C89.221 321.139 89.819 321.304 90.339 321.512V320.42C90.339 319.311 90.027 318.444 89.403 317.82C88.779 317.179 87.895 316.858 86.751 316.858C85.3816 316.858 83.943 317.387 82.435 318.444L81.681 316.962C83.4316 315.783 85.191 315.194 86.959 315.194C88.7443 315.194 90.131 315.671 91.119 316.624C92.1243 317.577 92.627 318.921 92.627 320.654V326.192C92.627 326.729 92.8696 327.007 93.355 327.024V329C93.1123 329.035 92.913 329.061 92.757 329.078C92.601 329.095 92.4363 329.104 92.263 329.104C91.8123 329.104 91.4483 328.974 91.171 328.714C90.911 328.437 90.755 328.107 90.703 327.726L90.651 326.764C90.0443 327.579 89.273 328.203 88.337 328.636C87.4183 329.052 86.4303 329.26 85.373 329.26ZM85.971 327.544C86.7856 327.544 87.5396 327.397 88.233 327.102C88.9436 326.79 89.481 326.383 89.845 325.88C90.1743 325.551 90.339 325.213 90.339 324.866V322.864C89.2296 322.431 88.077 322.214 86.881 322.214C85.737 322.214 84.801 322.457 84.073 322.942C83.3623 323.427 83.007 324.06 83.007 324.84C83.007 325.221 83.0763 325.577 83.215 325.906C83.371 326.235 83.579 326.521 83.839 326.764C84.1163 327.007 84.437 327.197 84.801 327.336C85.165 327.475 85.555 327.544 85.971 327.544ZM103.204 328.324C103.065 328.393 102.883 328.48 102.658 328.584C102.433 328.671 102.173 328.766 101.878 328.87C101.601 328.957 101.289 329.026 100.942 329.078C100.613 329.147 100.266 329.182 99.9019 329.182C99.0699 329.182 98.3506 328.957 97.7439 328.506C97.1372 328.038 96.8339 327.319 96.8339 326.348V317.222H94.9879V315.428H96.8339V310.904H99.1219V315.428H102.164V317.222H99.1219V325.646C99.1566 326.149 99.3212 326.513 99.6159 326.738C99.9106 326.963 100.257 327.076 100.656 327.076C101.107 327.076 101.514 327.007 101.878 326.868C102.259 326.712 102.519 326.591 102.658 326.504L103.204 328.324ZM108.809 329.26C108.167 329.26 107.569 329.156 107.015 328.948C106.46 328.723 105.975 328.419 105.559 328.038C105.16 327.657 104.839 327.215 104.597 326.712C104.371 326.192 104.259 325.629 104.259 325.022C104.259 324.398 104.397 323.835 104.675 323.332C104.952 322.812 105.342 322.37 105.845 322.006C106.365 321.642 106.971 321.356 107.665 321.148C108.375 320.94 109.147 320.836 109.979 320.836C110.637 320.836 111.305 320.897 111.981 321.018C112.657 321.139 113.255 321.304 113.775 321.512V320.42C113.775 319.311 113.463 318.444 112.839 317.82C112.215 317.179 111.331 316.858 110.187 316.858C108.817 316.858 107.379 317.387 105.871 318.444L105.117 316.962C106.867 315.783 108.627 315.194 110.395 315.194C112.18 315.194 113.567 315.671 114.555 316.624C115.56 317.577 116.063 318.921 116.063 320.654V326.192C116.063 326.729 116.305 327.007 116.791 327.024V329C116.548 329.035 116.349 329.061 116.193 329.078C116.037 329.095 115.872 329.104 115.699 329.104C115.248 329.104 114.884 328.974 114.607 328.714C114.347 328.437 114.191 328.107 114.139 327.726L114.087 326.764C113.48 327.579 112.709 328.203 111.773 328.636C110.854 329.052 109.866 329.26 108.809 329.26ZM109.407 327.544C110.221 327.544 110.975 327.397 111.669 327.102C112.379 326.79 112.917 326.383 113.281 325.88C113.61 325.551 113.775 325.213 113.775 324.866V322.864C112.665 322.431 111.513 322.214 110.317 322.214C109.173 322.214 108.237 322.457 107.509 322.942C106.798 323.427 106.443 324.06 106.443 324.84C106.443 325.221 106.512 325.577 106.651 325.906C106.807 326.235 107.015 326.521 107.275 326.764C107.552 327.007 107.873 327.197 108.237 327.336C108.601 327.475 108.991 327.544 109.407 327.544ZM133.603 329.26C132.477 329.26 131.48 328.983 130.613 328.428C129.764 327.873 129.088 327.171 128.585 326.322V334.538H126.297V315.428H128.325V317.976C128.863 317.144 129.556 316.477 130.405 315.974C131.272 315.454 132.225 315.194 133.265 315.194C134.201 315.194 135.059 315.385 135.839 315.766C136.619 316.147 137.295 316.667 137.867 317.326C138.439 317.967 138.881 318.713 139.193 319.562C139.523 320.411 139.687 321.295 139.687 322.214C139.687 323.185 139.54 324.103 139.245 324.97C138.951 325.819 138.535 326.565 137.997 327.206C137.46 327.83 136.819 328.333 136.073 328.714C135.328 329.078 134.505 329.26 133.603 329.26ZM132.901 327.284C133.577 327.284 134.184 327.145 134.721 326.868C135.276 326.573 135.744 326.192 136.125 325.724C136.524 325.239 136.827 324.693 137.035 324.086C137.243 323.479 137.347 322.855 137.347 322.214C137.347 321.538 137.226 320.897 136.983 320.29C136.741 319.666 136.411 319.129 135.995 318.678C135.579 318.21 135.085 317.846 134.513 317.586C133.959 317.309 133.352 317.17 132.693 317.17C132.277 317.17 131.844 317.257 131.393 317.43C130.96 317.586 130.544 317.803 130.145 318.08C129.764 318.34 129.426 318.661 129.131 319.042C128.854 319.406 128.672 319.796 128.585 320.212V324.086C128.776 324.537 129.019 324.961 129.313 325.36C129.608 325.741 129.946 326.079 130.327 326.374C130.709 326.651 131.116 326.877 131.549 327.05C131.983 327.206 132.433 327.284 132.901 327.284ZM149.672 317.43C148.528 317.465 147.514 317.759 146.63 318.314C145.764 318.869 145.148 319.64 144.784 320.628V329H142.496V315.428H144.628V318.574C145.096 317.638 145.712 316.884 146.474 316.312C147.237 315.723 148.052 315.393 148.918 315.324C149.092 315.324 149.239 315.324 149.36 315.324C149.482 315.324 149.586 315.333 149.672 315.35V317.43ZM157.565 329.26C156.542 329.26 155.606 329.069 154.757 328.688C153.925 328.307 153.206 327.795 152.599 327.154C152.01 326.513 151.55 325.767 151.221 324.918C150.892 324.069 150.727 323.176 150.727 322.24C150.727 321.287 150.892 320.385 151.221 319.536C151.568 318.687 152.036 317.941 152.625 317.3C153.232 316.659 153.951 316.147 154.783 315.766C155.632 315.385 156.56 315.194 157.565 315.194C158.57 315.194 159.498 315.385 160.347 315.766C161.196 316.147 161.916 316.659 162.505 317.3C163.112 317.941 163.58 318.687 163.909 319.536C164.256 320.385 164.429 321.287 164.429 322.24C164.429 323.176 164.264 324.069 163.935 324.918C163.606 325.767 163.138 326.513 162.531 327.154C161.924 327.795 161.196 328.307 160.347 328.688C159.515 329.069 158.588 329.26 157.565 329.26ZM153.067 322.266C153.067 322.977 153.18 323.635 153.405 324.242C153.648 324.849 153.968 325.377 154.367 325.828C154.783 326.279 155.26 326.634 155.797 326.894C156.352 327.154 156.941 327.284 157.565 327.284C158.189 327.284 158.77 327.154 159.307 326.894C159.862 326.634 160.347 326.279 160.763 325.828C161.179 325.36 161.5 324.823 161.725 324.216C161.968 323.592 162.089 322.925 162.089 322.214C162.089 321.521 161.968 320.871 161.725 320.264C161.5 319.64 161.179 319.103 160.763 318.652C160.347 318.184 159.862 317.82 159.307 317.56C158.77 317.3 158.189 317.17 157.565 317.17C156.941 317.17 156.352 317.309 155.797 317.586C155.26 317.846 154.783 318.21 154.367 318.678C153.968 319.129 153.648 319.666 153.405 320.29C153.18 320.897 153.067 321.555 153.067 322.266ZM174.018 328.324C173.88 328.393 173.698 328.48 173.472 328.584C173.247 328.671 172.987 328.766 172.692 328.87C172.415 328.957 172.103 329.026 171.756 329.078C171.427 329.147 171.08 329.182 170.716 329.182C169.884 329.182 169.165 328.957 168.558 328.506C167.952 328.038 167.648 327.319 167.648 326.348V317.222H165.802V315.428H167.648V310.904H169.936V315.428H172.978V317.222H169.936V325.646C169.971 326.149 170.136 326.513 170.43 326.738C170.725 326.963 171.072 327.076 171.47 327.076C171.921 327.076 172.328 327.007 172.692 326.868C173.074 326.712 173.334 326.591 173.472 326.504L174.018 328.324ZM181.967 329.26C180.945 329.26 180.009 329.078 179.159 328.714C178.31 328.333 177.582 327.821 176.975 327.18C176.369 326.539 175.892 325.793 175.545 324.944C175.216 324.077 175.051 323.167 175.051 322.214C175.051 321.261 175.216 320.359 175.545 319.51C175.892 318.661 176.369 317.915 176.975 317.274C177.599 316.633 178.336 316.13 179.185 315.766C180.035 315.385 180.971 315.194 181.993 315.194C183.016 315.194 183.943 315.385 184.775 315.766C185.625 316.147 186.344 316.659 186.933 317.3C187.523 317.924 187.973 318.661 188.285 319.51C188.615 320.342 188.779 321.209 188.779 322.11C188.779 322.301 188.771 322.474 188.753 322.63C188.753 322.786 188.745 322.907 188.727 322.994H177.469C177.521 323.67 177.677 324.285 177.937 324.84C178.197 325.395 178.535 325.871 178.951 326.27C179.367 326.669 179.835 326.981 180.355 327.206C180.893 327.431 181.456 327.544 182.045 327.544C182.461 327.544 182.869 327.492 183.267 327.388C183.666 327.267 184.039 327.111 184.385 326.92C184.732 326.729 185.035 326.495 185.295 326.218C185.573 325.941 185.781 325.629 185.919 325.282L187.895 325.828C187.67 326.331 187.358 326.79 186.959 327.206C186.578 327.622 186.127 327.986 185.607 328.298C185.105 328.593 184.541 328.827 183.917 329C183.293 329.173 182.643 329.26 181.967 329.26ZM186.621 321.304C186.569 320.663 186.405 320.073 186.127 319.536C185.867 318.981 185.529 318.513 185.113 318.132C184.715 317.751 184.247 317.456 183.709 317.248C183.172 317.023 182.6 316.91 181.993 316.91C181.387 316.91 180.815 317.023 180.277 317.248C179.74 317.456 179.263 317.759 178.847 318.158C178.449 318.539 178.119 318.999 177.859 319.536C177.617 320.073 177.469 320.663 177.417 321.304H186.621ZM190.413 322.188C190.413 321.235 190.577 320.333 190.907 319.484C191.236 318.635 191.704 317.898 192.311 317.274C192.917 316.633 193.637 316.13 194.469 315.766C195.318 315.385 196.263 315.194 197.303 315.194C198.655 315.194 199.816 315.497 200.787 316.104C201.775 316.693 202.52 317.491 203.023 318.496L200.787 319.198C200.44 318.557 199.955 318.063 199.331 317.716C198.707 317.352 198.013 317.17 197.251 317.17C196.627 317.17 196.037 317.3 195.483 317.56C194.928 317.803 194.451 318.149 194.053 318.6C193.654 319.051 193.333 319.579 193.091 320.186C192.865 320.793 192.753 321.46 192.753 322.188C192.753 322.899 192.874 323.566 193.117 324.19C193.359 324.814 193.68 325.36 194.079 325.828C194.495 326.279 194.971 326.634 195.509 326.894C196.063 327.154 196.653 327.284 197.277 327.284C197.675 327.284 198.065 327.232 198.447 327.128C198.845 327.007 199.201 326.851 199.513 326.66C199.842 326.469 200.128 326.253 200.371 326.01C200.613 325.75 200.787 325.473 200.891 325.178L203.127 325.854C202.919 326.357 202.624 326.816 202.243 327.232C201.879 327.648 201.445 328.003 200.943 328.298C200.44 328.593 199.877 328.827 199.253 329C198.646 329.173 198.005 329.26 197.329 329.26C196.306 329.26 195.37 329.069 194.521 328.688C193.671 328.307 192.943 327.795 192.337 327.154C191.73 326.513 191.253 325.767 190.907 324.918C190.577 324.051 190.413 323.141 190.413 322.188ZM212.739 328.324C212.6 328.393 212.418 328.48 212.193 328.584C211.968 328.671 211.708 328.766 211.413 328.87C211.136 328.957 210.824 329.026 210.477 329.078C210.148 329.147 209.801 329.182 209.437 329.182C208.605 329.182 207.886 328.957 207.279 328.506C206.672 328.038 206.369 327.319 206.369 326.348V317.222H204.523V315.428H206.369V310.904H208.657V315.428H211.699V317.222H208.657V325.646C208.692 326.149 208.856 326.513 209.151 326.738C209.446 326.963 209.792 327.076 210.191 327.076C210.642 327.076 211.049 327.007 211.413 326.868C211.794 326.712 212.054 326.591 212.193 326.504L212.739 328.324ZM220.688 329.26C219.665 329.26 218.729 329.078 217.88 328.714C217.031 328.333 216.303 327.821 215.696 327.18C215.089 326.539 214.613 325.793 214.266 324.944C213.937 324.077 213.772 323.167 213.772 322.214C213.772 321.261 213.937 320.359 214.266 319.51C214.613 318.661 215.089 317.915 215.696 317.274C216.32 316.633 217.057 316.13 217.906 315.766C218.755 315.385 219.691 315.194 220.714 315.194C221.737 315.194 222.664 315.385 223.496 315.766C224.345 316.147 225.065 316.659 225.654 317.3C226.243 317.924 226.694 318.661 227.006 319.51C227.335 320.342 227.5 321.209 227.5 322.11C227.5 322.301 227.491 322.474 227.474 322.63C227.474 322.786 227.465 322.907 227.448 322.994H216.19C216.242 323.67 216.398 324.285 216.658 324.84C216.918 325.395 217.256 325.871 217.672 326.27C218.088 326.669 218.556 326.981 219.076 327.206C219.613 327.431 220.177 327.544 220.766 327.544C221.182 327.544 221.589 327.492 221.988 327.388C222.387 327.267 222.759 327.111 223.106 326.92C223.453 326.729 223.756 326.495 224.016 326.218C224.293 325.941 224.501 325.629 224.64 325.282L226.616 325.828C226.391 326.331 226.079 326.79 225.68 327.206C225.299 327.622 224.848 327.986 224.328 328.298C223.825 328.593 223.262 328.827 222.638 329C222.014 329.173 221.364 329.26 220.688 329.26ZM225.342 321.304C225.29 320.663 225.125 320.073 224.848 319.536C224.588 318.981 224.25 318.513 223.834 318.132C223.435 317.751 222.967 317.456 222.43 317.248C221.893 317.023 221.321 316.91 220.714 316.91C220.107 316.91 219.535 317.023 218.998 317.248C218.461 317.456 217.984 317.759 217.568 318.158C217.169 318.539 216.84 318.999 216.58 319.536C216.337 320.073 216.19 320.663 216.138 321.304H225.342ZM235.633 329.26C234.697 329.26 233.831 329.069 233.033 328.688C232.236 328.307 231.551 327.795 230.979 327.154C230.407 326.513 229.957 325.767 229.627 324.918C229.315 324.069 229.159 323.176 229.159 322.24C229.159 321.287 229.307 320.385 229.601 319.536C229.913 318.669 230.338 317.915 230.875 317.274C231.43 316.633 232.08 316.13 232.825 315.766C233.588 315.385 234.42 315.194 235.321 315.194C236.413 315.194 237.384 315.48 238.233 316.052C239.1 316.624 239.785 317.317 240.287 318.132V310.02H242.575V326.192C242.575 326.729 242.818 327.007 243.303 327.024V329C243.061 329.035 242.861 329.061 242.705 329.078C242.567 329.095 242.428 329.104 242.289 329.104C241.839 329.104 241.44 328.957 241.093 328.662C240.764 328.35 240.599 327.995 240.599 327.596V326.452C240.062 327.336 239.343 328.029 238.441 328.532C237.557 329.017 236.621 329.26 235.633 329.26ZM236.179 327.284C236.595 327.284 237.02 327.206 237.453 327.05C237.904 326.894 238.32 326.677 238.701 326.4C239.1 326.123 239.438 325.802 239.715 325.438C240.01 325.057 240.201 324.658 240.287 324.242V320.342C240.131 319.909 239.897 319.501 239.585 319.12C239.273 318.721 238.918 318.383 238.519 318.106C238.138 317.811 237.722 317.586 237.271 317.43C236.838 317.257 236.405 317.17 235.971 317.17C235.295 317.17 234.68 317.317 234.125 317.612C233.588 317.889 233.12 318.271 232.721 318.756C232.34 319.224 232.045 319.77 231.837 320.394C231.629 321.001 231.525 321.625 231.525 322.266C231.525 322.942 231.647 323.592 231.889 324.216C232.132 324.823 232.461 325.351 232.877 325.802C233.293 326.253 233.779 326.617 234.333 326.894C234.905 327.154 235.521 327.284 236.179 327.284Z" fill="white"/>
<g filter="url(#filter0_di_339_249)">
<circle cx="139" cy="139" r="110" stroke="url(#paint0_linear_339_249)" stroke-width="10" shape-rendering="crispEdges"/>
</g>
<defs>
<filter id="filter0_di_339_249" x="0" y="0" width="278" height="278" filterUnits="userSpaceOnUse" color-interpolation-filters="sRGB">
<feFlood flood-opacity="0" result="BackgroundImageFix"/>
<feColorMatrix in="SourceAlpha" type="matrix" values="0 0 0 0 0 0 0 0 0 0 0 0 0 0 0 0 0 0 127 0" result="hardAlpha"/>
<feOffset/>
<feGaussianBlur stdDeviation="12"/>
<feComposite in2="hardAlpha" operator="out"/>
<feColorMatrix type="matrix" values="0 0 0 0 0.0883301 0 0 0 0 1 0 0 0 0 0.69611 0 0 0 0.5 0"/>
<feBlend mode="normal" in2="BackgroundImageFix" result="effect1_dropShadow_339_249"/>
<feBlend mode="normal" in="SourceGraphic" in2="effect1_dropShadow_339_249" result="shape"/>
<feColorMatrix in="SourceAlpha" type="matrix" values="0 0 0 0 0 0 0 0 0 0 0 0 0 0 0 0 0 0 127 0" result="hardAlpha"/>
<feOffset/>
<feGaussianBlur stdDeviation="6"/>
<feComposite in2="hardAlpha" operator="arithmetic" k2="-1" k3="1"/>
<feColorMatrix type="matrix" values="0 0 0 0 1 0 0 0 0 1 0 0 0 0 1 0 0 0 0.25 0"/>
<feBlend mode="normal" in2="shape" result="effect2_innerShadow_339_249"/>
</filter>
<linearGradient id="paint0_linear_339_249" x1="139" y1="29" x2="139" y2="249" gradientUnits="userSpaceOnUse">
<stop stop-color="#006745"/>
<stop offset="1" stop-color="#17FFB2"/>
</linearGradient>
</defs>
</svg>
