<svg width="271" height="117" viewBox="0 0 271 117" fill="none" xmlns="http://www.w3.org/2000/svg">
<g style="mix-blend-mode:overlay" opacity="0.1">
<path d="M-1.51422 1.72566C-1.51422 2.67872 -2.29453 3.45133 -3.25711 3.45133C-4.21968 3.45133 -5 2.67872 -5 1.72566C-5 0.772606 -4.21968 0 -3.25711 0C-2.29453 0 -1.51422 0.772606 -1.51422 1.72566Z" fill="white"/>
<path d="M14.869 1.72566C14.869 2.67872 14.0887 3.45133 13.1261 3.45133C12.1635 3.45133 11.3832 2.67872 11.3832 1.72566C11.3832 0.772606 12.1635 0 13.1261 0C14.0887 0 14.869 0.772606 14.869 1.72566Z" fill="white"/>
<path d="M31.2522 1.72566C31.2522 2.67872 30.4718 3.45133 29.5093 3.45133C28.5467 3.45133 27.7664 2.67872 27.7664 1.72566C27.7664 0.772606 28.5467 0 29.5093 0C30.4718 0 31.2522 0.772606 31.2522 1.72566Z" fill="white"/>
<path d="M47.6353 1.72566C47.6353 2.67872 46.855 3.45133 45.8925 3.45133C44.9299 3.45133 44.1496 2.67872 44.1496 1.72566C44.1496 0.772606 44.9299 0 45.8925 0C46.855 0 47.6353 0.772606 47.6353 1.72566Z" fill="white"/>
<path d="M64.0185 1.72566C64.0185 2.67872 63.2382 3.45133 62.2757 3.45133C61.3131 3.45133 60.5328 2.67872 60.5328 1.72566C60.5328 0.772606 61.3131 0 62.2757 0C63.2382 0 64.0185 0.772606 64.0185 1.72566Z" fill="white"/>
<path d="M80.4017 1.72566C80.4017 2.67872 79.6214 3.45133 78.6588 3.45133C77.6963 3.45133 76.9159 2.67872 76.9159 1.72566C76.9159 0.772606 77.6963 0 78.6588 0C79.6214 0 80.4017 0.772606 80.4017 1.72566Z" fill="white"/>
<path d="M96.7849 1.72566C96.7849 2.67872 96.0046 3.45133 95.042 3.45133C94.0795 3.45133 93.2991 2.67872 93.2991 1.72566C93.2991 0.772606 94.0795 0 95.042 0C96.0046 0 96.7849 0.772606 96.7849 1.72566Z" fill="white"/>
<path d="M113.168 1.72566C113.168 2.67872 112.388 3.45133 111.425 3.45133C110.463 3.45133 109.682 2.67872 109.682 1.72566C109.682 0.772606 110.463 0 111.425 0C112.388 0 113.168 0.772606 113.168 1.72566Z" fill="white"/>
<path d="M129.551 1.72566C129.551 2.67872 128.771 3.45133 127.808 3.45133C126.846 3.45133 126.066 2.67872 126.066 1.72566C126.066 0.772606 126.846 0 127.808 0C128.771 0 129.551 0.772606 129.551 1.72566Z" fill="white"/>
<path d="M145.934 1.72566C145.934 2.67872 145.154 3.45133 144.192 3.45133C143.229 3.45133 142.449 2.67872 142.449 1.72566C142.449 0.772606 143.229 0 144.192 0C145.154 0 145.934 0.772606 145.934 1.72566Z" fill="white"/>
<path d="M162.318 1.72566C162.318 2.67872 161.537 3.45133 160.575 3.45133C159.612 3.45133 158.832 2.67872 158.832 1.72566C158.832 0.772606 159.612 0 160.575 0C161.537 0 162.318 0.772606 162.318 1.72566Z" fill="white"/>
<path d="M178.701 1.72566C178.701 2.67872 177.921 3.45133 176.958 3.45133C175.995 3.45133 175.215 2.67872 175.215 1.72566C175.215 0.772606 175.995 0 176.958 0C177.921 0 178.701 0.772606 178.701 1.72566Z" fill="white"/>
<path d="M195.084 1.72566C195.084 2.67872 194.304 3.45133 193.341 3.45133C192.379 3.45133 191.598 2.67872 191.598 1.72566C191.598 0.772606 192.379 0 193.341 0C194.304 0 195.084 0.772606 195.084 1.72566Z" fill="white"/>
<path d="M211.467 1.72566C211.467 2.67872 210.687 3.45133 209.724 3.45133C208.762 3.45133 207.981 2.67872 207.981 1.72566C207.981 0.772606 208.762 0 209.724 0C210.687 0 211.467 0.772606 211.467 1.72566Z" fill="white"/>
<path d="M227.85 1.72566C227.85 2.67872 227.07 3.45133 226.108 3.45133C225.145 3.45133 224.365 2.67872 224.365 1.72566C224.365 0.772606 225.145 0 226.108 0C227.07 0 227.85 0.772606 227.85 1.72566Z" fill="white"/>
<path d="M244.234 1.72566C244.234 2.67872 243.453 3.45133 242.491 3.45133C241.528 3.45133 240.748 2.67872 240.748 1.72566C240.748 0.772606 241.528 0 242.491 0C243.453 0 244.234 0.772606 244.234 1.72566Z" fill="white"/>
<path d="M260.617 1.72566C260.617 2.67872 259.836 3.45133 258.874 3.45133C257.911 3.45133 257.131 2.67872 257.131 1.72566C257.131 0.772606 257.911 0 258.874 0C259.836 0 260.617 0.772606 260.617 1.72566Z" fill="white"/>
<path d="M277 1.72566C277 2.67872 276.22 3.45133 275.257 3.45133C274.295 3.45133 273.514 2.67872 273.514 1.72566C273.514 0.772606 274.295 0 275.257 0C276.22 0 277 0.772606 277 1.72566Z" fill="white"/>
<path d="M-1.51422 17.9469C-1.51422 18.9 -2.29453 19.6726 -3.25711 19.6726C-4.21968 19.6726 -5 18.9 -5 17.9469C-5 16.9938 -4.21968 16.2212 -3.25711 16.2212C-2.29453 16.2212 -1.51422 16.9938 -1.51422 17.9469Z" fill="white"/>
<path d="M14.869 17.9469C14.869 18.9 14.0887 19.6726 13.1261 19.6726C12.1635 19.6726 11.3832 18.9 11.3832 17.9469C11.3832 16.9938 12.1635 16.2212 13.1261 16.2212C14.0887 16.2212 14.869 16.9938 14.869 17.9469Z" fill="white"/>
<path d="M31.2522 17.9469C31.2522 18.9 30.4718 19.6726 29.5093 19.6726C28.5467 19.6726 27.7664 18.9 27.7664 17.9469C27.7664 16.9938 28.5467 16.2212 29.5093 16.2212C30.4718 16.2212 31.2522 16.9938 31.2522 17.9469Z" fill="white"/>
<path d="M47.6353 17.9469C47.6353 18.9 46.855 19.6726 45.8925 19.6726C44.9299 19.6726 44.1496 18.9 44.1496 17.9469C44.1496 16.9938 44.9299 16.2212 45.8925 16.2212C46.855 16.2212 47.6353 16.9938 47.6353 17.9469Z" fill="white"/>
<path d="M64.0185 17.9469C64.0185 18.9 63.2382 19.6726 62.2757 19.6726C61.3131 19.6726 60.5328 18.9 60.5328 17.9469C60.5328 16.9938 61.3131 16.2212 62.2757 16.2212C63.2382 16.2212 64.0185 16.9938 64.0185 17.9469Z" fill="white"/>
<path d="M80.4017 17.9469C80.4017 18.9 79.6214 19.6726 78.6588 19.6726C77.6963 19.6726 76.9159 18.9 76.9159 17.9469C76.9159 16.9938 77.6963 16.2212 78.6588 16.2212C79.6214 16.2212 80.4017 16.9938 80.4017 17.9469Z" fill="white"/>
<path d="M96.7849 17.9469C96.7849 18.9 96.0046 19.6726 95.042 19.6726C94.0795 19.6726 93.2991 18.9 93.2991 17.9469C93.2991 16.9938 94.0795 16.2212 95.042 16.2212C96.0046 16.2212 96.7849 16.9938 96.7849 17.9469Z" fill="white"/>
<path d="M113.168 17.9469C113.168 18.9 112.388 19.6726 111.425 19.6726C110.463 19.6726 109.682 18.9 109.682 17.9469C109.682 16.9938 110.463 16.2212 111.425 16.2212C112.388 16.2212 113.168 16.9938 113.168 17.9469Z" fill="white"/>
<path d="M129.551 17.9469C129.551 18.9 128.771 19.6726 127.808 19.6726C126.846 19.6726 126.066 18.9 126.066 17.9469C126.066 16.9938 126.846 16.2212 127.808 16.2212C128.771 16.2212 129.551 16.9938 129.551 17.9469Z" fill="white"/>
<path d="M145.934 17.9469C145.934 18.9 145.154 19.6726 144.192 19.6726C143.229 19.6726 142.449 18.9 142.449 17.9469C142.449 16.9938 143.229 16.2212 144.192 16.2212C145.154 16.2212 145.934 16.9938 145.934 17.9469Z" fill="white"/>
<path d="M162.318 17.9469C162.318 18.9 161.537 19.6726 160.575 19.6726C159.612 19.6726 158.832 18.9 158.832 17.9469C158.832 16.9938 159.612 16.2212 160.575 16.2212C161.537 16.2212 162.318 16.9938 162.318 17.9469Z" fill="white"/>
<path d="M178.701 17.9469C178.701 18.9 177.921 19.6726 176.958 19.6726C175.995 19.6726 175.215 18.9 175.215 17.9469C175.215 16.9938 175.995 16.2212 176.958 16.2212C177.921 16.2212 178.701 16.9938 178.701 17.9469Z" fill="white"/>
<path d="M195.084 17.9469C195.084 18.9 194.304 19.6726 193.341 19.6726C192.379 19.6726 191.598 18.9 191.598 17.9469C191.598 16.9938 192.379 16.2212 193.341 16.2212C194.304 16.2212 195.084 16.9938 195.084 17.9469Z" fill="white"/>
<path d="M211.467 17.9469C211.467 18.9 210.687 19.6726 209.724 19.6726C208.762 19.6726 207.981 18.9 207.981 17.9469C207.981 16.9938 208.762 16.2212 209.724 16.2212C210.687 16.2212 211.467 16.9938 211.467 17.9469Z" fill="white"/>
<path d="M227.85 17.9469C227.85 18.9 227.07 19.6726 226.108 19.6726C225.145 19.6726 224.365 18.9 224.365 17.9469C224.365 16.9938 225.145 16.2212 226.108 16.2212C227.07 16.2212 227.85 16.9938 227.85 17.9469Z" fill="white"/>
<path d="M244.234 17.9469C244.234 18.9 243.453 19.6726 242.491 19.6726C241.528 19.6726 240.748 18.9 240.748 17.9469C240.748 16.9938 241.528 16.2212 242.491 16.2212C243.453 16.2212 244.234 16.9938 244.234 17.9469Z" fill="white"/>
<path d="M260.617 17.9469C260.617 18.9 259.836 19.6726 258.874 19.6726C257.911 19.6726 257.131 18.9 257.131 17.9469C257.131 16.9938 257.911 16.2212 258.874 16.2212C259.836 16.2212 260.617 16.9938 260.617 17.9469Z" fill="white"/>
<path d="M277 17.9469C277 18.9 276.22 19.6726 275.257 19.6726C274.295 19.6726 273.514 18.9 273.514 17.9469C273.514 16.9938 274.295 16.2212 275.257 16.2212C276.22 16.2212 277 16.9938 277 17.9469Z" fill="white"/>
<path d="M-1.51422 34.1681C-1.51422 35.1212 -2.29453 35.8938 -3.25711 35.8938C-4.21968 35.8938 -5 35.1212 -5 34.1681C-5 33.2151 -4.21968 32.4425 -3.25711 32.4425C-2.29453 32.4425 -1.51422 33.2151 -1.51422 34.1681Z" fill="white"/>
<path d="M14.869 34.1681C14.869 35.1212 14.0887 35.8938 13.1261 35.8938C12.1635 35.8938 11.3832 35.1212 11.3832 34.1681C11.3832 33.2151 12.1635 32.4425 13.1261 32.4425C14.0887 32.4425 14.869 33.2151 14.869 34.1681Z" fill="white"/>
<path d="M31.2522 34.1681C31.2522 35.1212 30.4718 35.8938 29.5093 35.8938C28.5467 35.8938 27.7664 35.1212 27.7664 34.1681C27.7664 33.2151 28.5467 32.4425 29.5093 32.4425C30.4718 32.4425 31.2522 33.2151 31.2522 34.1681Z" fill="white"/>
<path d="M47.6353 34.1681C47.6353 35.1212 46.855 35.8938 45.8925 35.8938C44.9299 35.8938 44.1496 35.1212 44.1496 34.1681C44.1496 33.2151 44.9299 32.4425 45.8925 32.4425C46.855 32.4425 47.6353 33.2151 47.6353 34.1681Z" fill="white"/>
<path d="M64.0185 34.1681C64.0185 35.1212 63.2382 35.8938 62.2757 35.8938C61.3131 35.8938 60.5328 35.1212 60.5328 34.1681C60.5328 33.2151 61.3131 32.4425 62.2757 32.4425C63.2382 32.4425 64.0185 33.2151 64.0185 34.1681Z" fill="white"/>
<path d="M80.4017 34.1681C80.4017 35.1212 79.6214 35.8938 78.6588 35.8938C77.6963 35.8938 76.9159 35.1212 76.9159 34.1681C76.9159 33.2151 77.6963 32.4425 78.6588 32.4425C79.6214 32.4425 80.4017 33.2151 80.4017 34.1681Z" fill="white"/>
<path d="M96.7849 34.1681C96.7849 35.1212 96.0046 35.8938 95.042 35.8938C94.0795 35.8938 93.2991 35.1212 93.2991 34.1681C93.2991 33.2151 94.0795 32.4425 95.042 32.4425C96.0046 32.4425 96.7849 33.2151 96.7849 34.1681Z" fill="white"/>
<path d="M113.168 34.1681C113.168 35.1212 112.388 35.8938 111.425 35.8938C110.463 35.8938 109.682 35.1212 109.682 34.1681C109.682 33.2151 110.463 32.4425 111.425 32.4425C112.388 32.4425 113.168 33.2151 113.168 34.1681Z" fill="white"/>
<path d="M129.551 34.1681C129.551 35.1212 128.771 35.8938 127.808 35.8938C126.846 35.8938 126.066 35.1212 126.066 34.1681C126.066 33.2151 126.846 32.4425 127.808 32.4425C128.771 32.4425 129.551 33.2151 129.551 34.1681Z" fill="white"/>
<path d="M145.934 34.1681C145.934 35.1212 145.154 35.8938 144.192 35.8938C143.229 35.8938 142.449 35.1212 142.449 34.1681C142.449 33.2151 143.229 32.4425 144.192 32.4425C145.154 32.4425 145.934 33.2151 145.934 34.1681Z" fill="white"/>
<path d="M162.318 34.1681C162.318 35.1212 161.537 35.8938 160.575 35.8938C159.612 35.8938 158.832 35.1212 158.832 34.1681C158.832 33.2151 159.612 32.4425 160.575 32.4425C161.537 32.4425 162.318 33.2151 162.318 34.1681Z" fill="white"/>
<path d="M178.701 34.1681C178.701 35.1212 177.921 35.8938 176.958 35.8938C175.995 35.8938 175.215 35.1212 175.215 34.1681C175.215 33.2151 175.995 32.4425 176.958 32.4425C177.921 32.4425 178.701 33.2151 178.701 34.1681Z" fill="white"/>
<path d="M195.084 34.1681C195.084 35.1212 194.304 35.8938 193.341 35.8938C192.379 35.8938 191.598 35.1212 191.598 34.1681C191.598 33.2151 192.379 32.4425 193.341 32.4425C194.304 32.4425 195.084 33.2151 195.084 34.1681Z" fill="white"/>
<path d="M211.467 34.1681C211.467 35.1212 210.687 35.8938 209.724 35.8938C208.762 35.8938 207.981 35.1212 207.981 34.1681C207.981 33.2151 208.762 32.4425 209.724 32.4425C210.687 32.4425 211.467 33.2151 211.467 34.1681Z" fill="white"/>
<path d="M227.85 34.1681C227.85 35.1212 227.07 35.8938 226.108 35.8938C225.145 35.8938 224.365 35.1212 224.365 34.1681C224.365 33.2151 225.145 32.4425 226.108 32.4425C227.07 32.4425 227.85 33.2151 227.85 34.1681Z" fill="white"/>
<path d="M244.234 34.1681C244.234 35.1212 243.453 35.8938 242.491 35.8938C241.528 35.8938 240.748 35.1212 240.748 34.1681C240.748 33.2151 241.528 32.4425 242.491 32.4425C243.453 32.4425 244.234 33.2151 244.234 34.1681Z" fill="white"/>
<path d="M260.617 34.1681C260.617 35.1212 259.836 35.8938 258.874 35.8938C257.911 35.8938 257.131 35.1212 257.131 34.1681C257.131 33.2151 257.911 32.4425 258.874 32.4425C259.836 32.4425 260.617 33.2151 260.617 34.1681Z" fill="white"/>
<path d="M277 34.1681C277 35.1212 276.22 35.8938 275.257 35.8938C274.295 35.8938 273.514 35.1212 273.514 34.1681C273.514 33.2151 274.295 32.4425 275.257 32.4425C276.22 32.4425 277 33.2151 277 34.1681Z" fill="white"/>
<path d="M-1.51422 50.3894C-1.51422 51.3424 -2.29453 52.115 -3.25711 52.115C-4.21968 52.115 -5 51.3424 -5 50.3894C-5 49.4363 -4.21968 48.6637 -3.25711 48.6637C-2.29453 48.6637 -1.51422 49.4363 -1.51422 50.3894Z" fill="white"/>
<path d="M14.869 50.3894C14.869 51.3424 14.0887 52.115 13.1261 52.115C12.1635 52.115 11.3832 51.3424 11.3832 50.3894C11.3832 49.4363 12.1635 48.6637 13.1261 48.6637C14.0887 48.6637 14.869 49.4363 14.869 50.3894Z" fill="white"/>
<path d="M31.2522 50.3894C31.2522 51.3424 30.4718 52.115 29.5093 52.115C28.5467 52.115 27.7664 51.3424 27.7664 50.3894C27.7664 49.4363 28.5467 48.6637 29.5093 48.6637C30.4718 48.6637 31.2522 49.4363 31.2522 50.3894Z" fill="white"/>
<path d="M47.6353 50.3894C47.6353 51.3424 46.855 52.115 45.8925 52.115C44.9299 52.115 44.1496 51.3424 44.1496 50.3894C44.1496 49.4363 44.9299 48.6637 45.8925 48.6637C46.855 48.6637 47.6353 49.4363 47.6353 50.3894Z" fill="white"/>
<path d="M64.0185 50.3894C64.0185 51.3424 63.2382 52.115 62.2757 52.115C61.3131 52.115 60.5328 51.3424 60.5328 50.3894C60.5328 49.4363 61.3131 48.6637 62.2757 48.6637C63.2382 48.6637 64.0185 49.4363 64.0185 50.3894Z" fill="white"/>
<path d="M80.4017 50.3894C80.4017 51.3424 79.6214 52.115 78.6588 52.115C77.6963 52.115 76.9159 51.3424 76.9159 50.3894C76.9159 49.4363 77.6963 48.6637 78.6588 48.6637C79.6214 48.6637 80.4017 49.4363 80.4017 50.3894Z" fill="white"/>
<path d="M96.7849 50.3894C96.7849 51.3424 96.0046 52.115 95.042 52.115C94.0795 52.115 93.2991 51.3424 93.2991 50.3894C93.2991 49.4363 94.0795 48.6637 95.042 48.6637C96.0046 48.6637 96.7849 49.4363 96.7849 50.3894Z" fill="white"/>
<path d="M113.168 50.3894C113.168 51.3424 112.388 52.115 111.425 52.115C110.463 52.115 109.682 51.3424 109.682 50.3894C109.682 49.4363 110.463 48.6637 111.425 48.6637C112.388 48.6637 113.168 49.4363 113.168 50.3894Z" fill="white"/>
<path d="M129.551 50.3894C129.551 51.3424 128.771 52.115 127.808 52.115C126.846 52.115 126.066 51.3424 126.066 50.3894C126.066 49.4363 126.846 48.6637 127.808 48.6637C128.771 48.6637 129.551 49.4363 129.551 50.3894Z" fill="white"/>
<path d="M145.934 50.3894C145.934 51.3424 145.154 52.115 144.192 52.115C143.229 52.115 142.449 51.3424 142.449 50.3894C142.449 49.4363 143.229 48.6637 144.192 48.6637C145.154 48.6637 145.934 49.4363 145.934 50.3894Z" fill="white"/>
<path d="M162.318 50.3894C162.318 51.3424 161.537 52.115 160.575 52.115C159.612 52.115 158.832 51.3424 158.832 50.3894C158.832 49.4363 159.612 48.6637 160.575 48.6637C161.537 48.6637 162.318 49.4363 162.318 50.3894Z" fill="white"/>
<path d="M178.701 50.3894C178.701 51.3424 177.921 52.115 176.958 52.115C175.995 52.115 175.215 51.3424 175.215 50.3894C175.215 49.4363 175.995 48.6637 176.958 48.6637C177.921 48.6637 178.701 49.4363 178.701 50.3894Z" fill="white"/>
<path d="M195.084 50.3894C195.084 51.3424 194.304 52.115 193.341 52.115C192.379 52.115 191.598 51.3424 191.598 50.3894C191.598 49.4363 192.379 48.6637 193.341 48.6637C194.304 48.6637 195.084 49.4363 195.084 50.3894Z" fill="white"/>
<path d="M211.467 50.3894C211.467 51.3424 210.687 52.115 209.724 52.115C208.762 52.115 207.981 51.3424 207.981 50.3894C207.981 49.4363 208.762 48.6637 209.724 48.6637C210.687 48.6637 211.467 49.4363 211.467 50.3894Z" fill="white"/>
<path d="M227.85 50.3894C227.85 51.3424 227.07 52.115 226.108 52.115C225.145 52.115 224.365 51.3424 224.365 50.3894C224.365 49.4363 225.145 48.6637 226.108 48.6637C227.07 48.6637 227.85 49.4363 227.85 50.3894Z" fill="white"/>
<path d="M244.234 50.3894C244.234 51.3424 243.453 52.115 242.491 52.115C241.528 52.115 240.748 51.3424 240.748 50.3894C240.748 49.4363 241.528 48.6637 242.491 48.6637C243.453 48.6637 244.234 49.4363 244.234 50.3894Z" fill="white"/>
<path d="M260.617 50.3894C260.617 51.3424 259.836 52.115 258.874 52.115C257.911 52.115 257.131 51.3424 257.131 50.3894C257.131 49.4363 257.911 48.6637 258.874 48.6637C259.836 48.6637 260.617 49.4363 260.617 50.3894Z" fill="white"/>
<path d="M277 50.3894C277 51.3424 276.22 52.115 275.257 52.115C274.295 52.115 273.514 51.3424 273.514 50.3894C273.514 49.4363 274.295 48.6637 275.257 48.6637C276.22 48.6637 277 49.4363 277 50.3894Z" fill="white"/>
<path d="M-1.51422 66.6106C-1.51422 67.5637 -2.29453 68.3363 -3.25711 68.3363C-4.21968 68.3363 -5 67.5637 -5 66.6106C-5 65.6576 -4.21968 64.885 -3.25711 64.885C-2.29453 64.885 -1.51422 65.6576 -1.51422 66.6106Z" fill="white"/>
<path d="M14.869 66.6106C14.869 67.5637 14.0887 68.3363 13.1261 68.3363C12.1635 68.3363 11.3832 67.5637 11.3832 66.6106C11.3832 65.6576 12.1635 64.885 13.1261 64.885C14.0887 64.885 14.869 65.6576 14.869 66.6106Z" fill="white"/>
<path d="M31.2522 66.6106C31.2522 67.5637 30.4718 68.3363 29.5093 68.3363C28.5467 68.3363 27.7664 67.5637 27.7664 66.6106C27.7664 65.6576 28.5467 64.885 29.5093 64.885C30.4718 64.885 31.2522 65.6576 31.2522 66.6106Z" fill="white"/>
<path d="M47.6353 66.6106C47.6353 67.5637 46.855 68.3363 45.8925 68.3363C44.9299 68.3363 44.1496 67.5637 44.1496 66.6106C44.1496 65.6576 44.9299 64.885 45.8925 64.885C46.855 64.885 47.6353 65.6576 47.6353 66.6106Z" fill="white"/>
<path d="M64.0185 66.6106C64.0185 67.5637 63.2382 68.3363 62.2757 68.3363C61.3131 68.3363 60.5328 67.5637 60.5328 66.6106C60.5328 65.6576 61.3131 64.885 62.2757 64.885C63.2382 64.885 64.0185 65.6576 64.0185 66.6106Z" fill="white"/>
<path d="M80.4017 66.6106C80.4017 67.5637 79.6214 68.3363 78.6588 68.3363C77.6963 68.3363 76.9159 67.5637 76.9159 66.6106C76.9159 65.6576 77.6963 64.885 78.6588 64.885C79.6214 64.885 80.4017 65.6576 80.4017 66.6106Z" fill="white"/>
<path d="M96.7849 66.6106C96.7849 67.5637 96.0046 68.3363 95.042 68.3363C94.0795 68.3363 93.2991 67.5637 93.2991 66.6106C93.2991 65.6576 94.0795 64.885 95.042 64.885C96.0046 64.885 96.7849 65.6576 96.7849 66.6106Z" fill="white"/>
<path d="M113.168 66.6106C113.168 67.5637 112.388 68.3363 111.425 68.3363C110.463 68.3363 109.682 67.5637 109.682 66.6106C109.682 65.6576 110.463 64.885 111.425 64.885C112.388 64.885 113.168 65.6576 113.168 66.6106Z" fill="white"/>
<path d="M129.551 66.6106C129.551 67.5637 128.771 68.3363 127.808 68.3363C126.846 68.3363 126.066 67.5637 126.066 66.6106C126.066 65.6576 126.846 64.885 127.808 64.885C128.771 64.885 129.551 65.6576 129.551 66.6106Z" fill="white"/>
<path d="M145.934 66.6106C145.934 67.5637 145.154 68.3363 144.192 68.3363C143.229 68.3363 142.449 67.5637 142.449 66.6106C142.449 65.6576 143.229 64.885 144.192 64.885C145.154 64.885 145.934 65.6576 145.934 66.6106Z" fill="white"/>
<path d="M162.318 66.6106C162.318 67.5637 161.537 68.3363 160.575 68.3363C159.612 68.3363 158.832 67.5637 158.832 66.6106C158.832 65.6576 159.612 64.885 160.575 64.885C161.537 64.885 162.318 65.6576 162.318 66.6106Z" fill="white"/>
<path d="M178.701 66.6106C178.701 67.5637 177.921 68.3363 176.958 68.3363C175.995 68.3363 175.215 67.5637 175.215 66.6106C175.215 65.6576 175.995 64.885 176.958 64.885C177.921 64.885 178.701 65.6576 178.701 66.6106Z" fill="white"/>
<path d="M195.084 66.6106C195.084 67.5637 194.304 68.3363 193.341 68.3363C192.379 68.3363 191.598 67.5637 191.598 66.6106C191.598 65.6576 192.379 64.885 193.341 64.885C194.304 64.885 195.084 65.6576 195.084 66.6106Z" fill="white"/>
<path d="M211.467 66.6106C211.467 67.5637 210.687 68.3363 209.724 68.3363C208.762 68.3363 207.981 67.5637 207.981 66.6106C207.981 65.6576 208.762 64.885 209.724 64.885C210.687 64.885 211.467 65.6576 211.467 66.6106Z" fill="white"/>
<path d="M227.85 66.6106C227.85 67.5637 227.07 68.3363 226.108 68.3363C225.145 68.3363 224.365 67.5637 224.365 66.6106C224.365 65.6576 225.145 64.885 226.108 64.885C227.07 64.885 227.85 65.6576 227.85 66.6106Z" fill="white"/>
<path d="M244.234 66.6106C244.234 67.5637 243.453 68.3363 242.491 68.3363C241.528 68.3363 240.748 67.5637 240.748 66.6106C240.748 65.6576 241.528 64.885 242.491 64.885C243.453 64.885 244.234 65.6576 244.234 66.6106Z" fill="white"/>
<path d="M260.617 66.6106C260.617 67.5637 259.836 68.3363 258.874 68.3363C257.911 68.3363 257.131 67.5637 257.131 66.6106C257.131 65.6576 257.911 64.885 258.874 64.885C259.836 64.885 260.617 65.6576 260.617 66.6106Z" fill="white"/>
<path d="M277 66.6106C277 67.5637 276.22 68.3363 275.257 68.3363C274.295 68.3363 273.514 67.5637 273.514 66.6106C273.514 65.6576 274.295 64.885 275.257 64.885C276.22 64.885 277 65.6576 277 66.6106Z" fill="white"/>
<path d="M-1.51422 82.8319C-1.51422 83.7849 -2.29453 84.5575 -3.25711 84.5575C-4.21968 84.5575 -5 83.7849 -5 82.8319C-5 81.8788 -4.21968 81.1062 -3.25711 81.1062C-2.29453 81.1062 -1.51422 81.8788 -1.51422 82.8319Z" fill="white"/>
<path d="M14.869 82.8319C14.869 83.7849 14.0887 84.5575 13.1261 84.5575C12.1635 84.5575 11.3832 83.7849 11.3832 82.8319C11.3832 81.8788 12.1635 81.1062 13.1261 81.1062C14.0887 81.1062 14.869 81.8788 14.869 82.8319Z" fill="white"/>
<path d="M31.2522 82.8319C31.2522 83.7849 30.4718 84.5575 29.5093 84.5575C28.5467 84.5575 27.7664 83.7849 27.7664 82.8319C27.7664 81.8788 28.5467 81.1062 29.5093 81.1062C30.4718 81.1062 31.2522 81.8788 31.2522 82.8319Z" fill="white"/>
<path d="M47.6353 82.8319C47.6353 83.7849 46.855 84.5575 45.8925 84.5575C44.9299 84.5575 44.1496 83.7849 44.1496 82.8319C44.1496 81.8788 44.9299 81.1062 45.8925 81.1062C46.855 81.1062 47.6353 81.8788 47.6353 82.8319Z" fill="white"/>
<path d="M64.0185 82.8319C64.0185 83.7849 63.2382 84.5575 62.2757 84.5575C61.3131 84.5575 60.5328 83.7849 60.5328 82.8319C60.5328 81.8788 61.3131 81.1062 62.2757 81.1062C63.2382 81.1062 64.0185 81.8788 64.0185 82.8319Z" fill="white"/>
<path d="M80.4017 82.8319C80.4017 83.7849 79.6214 84.5575 78.6588 84.5575C77.6963 84.5575 76.9159 83.7849 76.9159 82.8319C76.9159 81.8788 77.6963 81.1062 78.6588 81.1062C79.6214 81.1062 80.4017 81.8788 80.4017 82.8319Z" fill="white"/>
<path d="M96.7849 82.8319C96.7849 83.7849 96.0046 84.5575 95.042 84.5575C94.0795 84.5575 93.2991 83.7849 93.2991 82.8319C93.2991 81.8788 94.0795 81.1062 95.042 81.1062C96.0046 81.1062 96.7849 81.8788 96.7849 82.8319Z" fill="white"/>
<path d="M113.168 82.8319C113.168 83.7849 112.388 84.5575 111.425 84.5575C110.463 84.5575 109.682 83.7849 109.682 82.8319C109.682 81.8788 110.463 81.1062 111.425 81.1062C112.388 81.1062 113.168 81.8788 113.168 82.8319Z" fill="white"/>
<path d="M129.551 82.8319C129.551 83.7849 128.771 84.5575 127.808 84.5575C126.846 84.5575 126.066 83.7849 126.066 82.8319C126.066 81.8788 126.846 81.1062 127.808 81.1062C128.771 81.1062 129.551 81.8788 129.551 82.8319Z" fill="white"/>
<path d="M145.934 82.8319C145.934 83.7849 145.154 84.5575 144.192 84.5575C143.229 84.5575 142.449 83.7849 142.449 82.8319C142.449 81.8788 143.229 81.1062 144.192 81.1062C145.154 81.1062 145.934 81.8788 145.934 82.8319Z" fill="white"/>
<path d="M162.318 82.8319C162.318 83.7849 161.537 84.5575 160.575 84.5575C159.612 84.5575 158.832 83.7849 158.832 82.8319C158.832 81.8788 159.612 81.1062 160.575 81.1062C161.537 81.1062 162.318 81.8788 162.318 82.8319Z" fill="white"/>
<path d="M178.701 82.8319C178.701 83.7849 177.921 84.5575 176.958 84.5575C175.995 84.5575 175.215 83.7849 175.215 82.8319C175.215 81.8788 175.995 81.1062 176.958 81.1062C177.921 81.1062 178.701 81.8788 178.701 82.8319Z" fill="white"/>
<path d="M195.084 82.8319C195.084 83.7849 194.304 84.5575 193.341 84.5575C192.379 84.5575 191.598 83.7849 191.598 82.8319C191.598 81.8788 192.379 81.1062 193.341 81.1062C194.304 81.1062 195.084 81.8788 195.084 82.8319Z" fill="white"/>
<path d="M211.467 82.8319C211.467 83.7849 210.687 84.5575 209.724 84.5575C208.762 84.5575 207.981 83.7849 207.981 82.8319C207.981 81.8788 208.762 81.1062 209.724 81.1062C210.687 81.1062 211.467 81.8788 211.467 82.8319Z" fill="white"/>
<path d="M227.85 82.8319C227.85 83.7849 227.07 84.5575 226.108 84.5575C225.145 84.5575 224.365 83.7849 224.365 82.8319C224.365 81.8788 225.145 81.1062 226.108 81.1062C227.07 81.1062 227.85 81.8788 227.85 82.8319Z" fill="white"/>
<path d="M244.234 82.8319C244.234 83.7849 243.453 84.5575 242.491 84.5575C241.528 84.5575 240.748 83.7849 240.748 82.8319C240.748 81.8788 241.528 81.1062 242.491 81.1062C243.453 81.1062 244.234 81.8788 244.234 82.8319Z" fill="white"/>
<path d="M260.617 82.8319C260.617 83.7849 259.836 84.5575 258.874 84.5575C257.911 84.5575 257.131 83.7849 257.131 82.8319C257.131 81.8788 257.911 81.1062 258.874 81.1062C259.836 81.1062 260.617 81.8788 260.617 82.8319Z" fill="white"/>
<path d="M277 82.8319C277 83.7849 276.22 84.5575 275.257 84.5575C274.295 84.5575 273.514 83.7849 273.514 82.8319C273.514 81.8788 274.295 81.1062 275.257 81.1062C276.22 81.1062 277 81.8788 277 82.8319Z" fill="white"/>
<path d="M-1.51422 99.0531C-1.51422 100.006 -2.29453 100.779 -3.25711 100.779C-4.21968 100.779 -5 100.006 -5 99.0531C-5 98.1 -4.21968 97.3274 -3.25711 97.3274C-2.29453 97.3274 -1.51422 98.1 -1.51422 99.0531Z" fill="white"/>
<path d="M14.869 99.0531C14.869 100.006 14.0887 100.779 13.1261 100.779C12.1635 100.779 11.3832 100.006 11.3832 99.0531C11.3832 98.1 12.1635 97.3274 13.1261 97.3274C14.0887 97.3274 14.869 98.1 14.869 99.0531Z" fill="white"/>
<path d="M31.2522 99.0531C31.2522 100.006 30.4718 100.779 29.5093 100.779C28.5467 100.779 27.7664 100.006 27.7664 99.0531C27.7664 98.1 28.5467 97.3274 29.5093 97.3274C30.4718 97.3274 31.2522 98.1 31.2522 99.0531Z" fill="white"/>
<path d="M47.6353 99.0531C47.6353 100.006 46.855 100.779 45.8925 100.779C44.9299 100.779 44.1496 100.006 44.1496 99.0531C44.1496 98.1 44.9299 97.3274 45.8925 97.3274C46.855 97.3274 47.6353 98.1 47.6353 99.0531Z" fill="white"/>
<path d="M64.0185 99.0531C64.0185 100.006 63.2382 100.779 62.2757 100.779C61.3131 100.779 60.5328 100.006 60.5328 99.0531C60.5328 98.1 61.3131 97.3274 62.2757 97.3274C63.2382 97.3274 64.0185 98.1 64.0185 99.0531Z" fill="white"/>
<path d="M80.4017 99.0531C80.4017 100.006 79.6214 100.779 78.6588 100.779C77.6963 100.779 76.9159 100.006 76.9159 99.0531C76.9159 98.1 77.6963 97.3274 78.6588 97.3274C79.6214 97.3274 80.4017 98.1 80.4017 99.0531Z" fill="white"/>
<path d="M96.7849 99.0531C96.7849 100.006 96.0046 100.779 95.042 100.779C94.0795 100.779 93.2991 100.006 93.2991 99.0531C93.2991 98.1 94.0795 97.3274 95.042 97.3274C96.0046 97.3274 96.7849 98.1 96.7849 99.0531Z" fill="white"/>
<path d="M113.168 99.0531C113.168 100.006 112.388 100.779 111.425 100.779C110.463 100.779 109.682 100.006 109.682 99.0531C109.682 98.1 110.463 97.3274 111.425 97.3274C112.388 97.3274 113.168 98.1 113.168 99.0531Z" fill="white"/>
<path d="M129.551 99.0531C129.551 100.006 128.771 100.779 127.808 100.779C126.846 100.779 126.066 100.006 126.066 99.0531C126.066 98.1 126.846 97.3274 127.808 97.3274C128.771 97.3274 129.551 98.1 129.551 99.0531Z" fill="white"/>
<path d="M145.934 99.0531C145.934 100.006 145.154 100.779 144.192 100.779C143.229 100.779 142.449 100.006 142.449 99.0531C142.449 98.1 143.229 97.3274 144.192 97.3274C145.154 97.3274 145.934 98.1 145.934 99.0531Z" fill="white"/>
<path d="M162.318 99.0531C162.318 100.006 161.537 100.779 160.575 100.779C159.612 100.779 158.832 100.006 158.832 99.0531C158.832 98.1 159.612 97.3274 160.575 97.3274C161.537 97.3274 162.318 98.1 162.318 99.0531Z" fill="white"/>
<path d="M178.701 99.0531C178.701 100.006 177.921 100.779 176.958 100.779C175.995 100.779 175.215 100.006 175.215 99.0531C175.215 98.1 175.995 97.3274 176.958 97.3274C177.921 97.3274 178.701 98.1 178.701 99.0531Z" fill="white"/>
<path d="M195.084 99.0531C195.084 100.006 194.304 100.779 193.341 100.779C192.379 100.779 191.598 100.006 191.598 99.0531C191.598 98.1 192.379 97.3274 193.341 97.3274C194.304 97.3274 195.084 98.1 195.084 99.0531Z" fill="white"/>
<path d="M211.467 99.0531C211.467 100.006 210.687 100.779 209.724 100.779C208.762 100.779 207.981 100.006 207.981 99.0531C207.981 98.1 208.762 97.3274 209.724 97.3274C210.687 97.3274 211.467 98.1 211.467 99.0531Z" fill="white"/>
<path d="M227.85 99.0531C227.85 100.006 227.07 100.779 226.108 100.779C225.145 100.779 224.365 100.006 224.365 99.0531C224.365 98.1 225.145 97.3274 226.108 97.3274C227.07 97.3274 227.85 98.1 227.85 99.0531Z" fill="white"/>
<path d="M244.234 99.0531C244.234 100.006 243.453 100.779 242.491 100.779C241.528 100.779 240.748 100.006 240.748 99.0531C240.748 98.1 241.528 97.3274 242.491 97.3274C243.453 97.3274 244.234 98.1 244.234 99.0531Z" fill="white"/>
<path d="M260.617 99.0531C260.617 100.006 259.836 100.779 258.874 100.779C257.911 100.779 257.131 100.006 257.131 99.0531C257.131 98.1 257.911 97.3274 258.874 97.3274C259.836 97.3274 260.617 98.1 260.617 99.0531Z" fill="white"/>
<path d="M277 99.0531C277 100.006 276.22 100.779 275.257 100.779C274.295 100.779 273.514 100.006 273.514 99.0531C273.514 98.1 274.295 97.3274 275.257 97.3274C276.22 97.3274 277 98.1 277 99.0531Z" fill="white"/>
<path d="M-1.51422 115.274C-1.51422 116.227 -2.29453 117 -3.25711 117C-4.21968 117 -5 116.227 -5 115.274C-5 114.321 -4.21968 113.549 -3.25711 113.549C-2.29453 113.549 -1.51422 114.321 -1.51422 115.274Z" fill="white"/>
<path d="M14.869 115.274C14.869 116.227 14.0887 117 13.1261 117C12.1635 117 11.3832 116.227 11.3832 115.274C11.3832 114.321 12.1635 113.549 13.1261 113.549C14.0887 113.549 14.869 114.321 14.869 115.274Z" fill="white"/>
<path d="M31.2522 115.274C31.2522 116.227 30.4718 117 29.5093 117C28.5467 117 27.7664 116.227 27.7664 115.274C27.7664 114.321 28.5467 113.549 29.5093 113.549C30.4718 113.549 31.2522 114.321 31.2522 115.274Z" fill="white"/>
<path d="M47.6353 115.274C47.6353 116.227 46.855 117 45.8925 117C44.9299 117 44.1496 116.227 44.1496 115.274C44.1496 114.321 44.9299 113.549 45.8925 113.549C46.855 113.549 47.6353 114.321 47.6353 115.274Z" fill="white"/>
<path d="M64.0185 115.274C64.0185 116.227 63.2382 117 62.2757 117C61.3131 117 60.5328 116.227 60.5328 115.274C60.5328 114.321 61.3131 113.549 62.2757 113.549C63.2382 113.549 64.0185 114.321 64.0185 115.274Z" fill="white"/>
<path d="M80.4017 115.274C80.4017 116.227 79.6214 117 78.6588 117C77.6963 117 76.9159 116.227 76.9159 115.274C76.9159 114.321 77.6963 113.549 78.6588 113.549C79.6214 113.549 80.4017 114.321 80.4017 115.274Z" fill="white"/>
<path d="M96.7849 115.274C96.7849 116.227 96.0046 117 95.042 117C94.0795 117 93.2991 116.227 93.2991 115.274C93.2991 114.321 94.0795 113.549 95.042 113.549C96.0046 113.549 96.7849 114.321 96.7849 115.274Z" fill="white"/>
<path d="M113.168 115.274C113.168 116.227 112.388 117 111.425 117C110.463 117 109.682 116.227 109.682 115.274C109.682 114.321 110.463 113.549 111.425 113.549C112.388 113.549 113.168 114.321 113.168 115.274Z" fill="white"/>
<path d="M129.551 115.274C129.551 116.227 128.771 117 127.808 117C126.846 117 126.066 116.227 126.066 115.274C126.066 114.321 126.846 113.549 127.808 113.549C128.771 113.549 129.551 114.321 129.551 115.274Z" fill="white"/>
<path d="M145.934 115.274C145.934 116.227 145.154 117 144.192 117C143.229 117 142.449 116.227 142.449 115.274C142.449 114.321 143.229 113.549 144.192 113.549C145.154 113.549 145.934 114.321 145.934 115.274Z" fill="white"/>
<path d="M162.318 115.274C162.318 116.227 161.537 117 160.575 117C159.612 117 158.832 116.227 158.832 115.274C158.832 114.321 159.612 113.549 160.575 113.549C161.537 113.549 162.318 114.321 162.318 115.274Z" fill="white"/>
<path d="M178.701 115.274C178.701 116.227 177.921 117 176.958 117C175.995 117 175.215 116.227 175.215 115.274C175.215 114.321 175.995 113.549 176.958 113.549C177.921 113.549 178.701 114.321 178.701 115.274Z" fill="white"/>
<path d="M195.084 115.274C195.084 116.227 194.304 117 193.341 117C192.379 117 191.598 116.227 191.598 115.274C191.598 114.321 192.379 113.549 193.341 113.549C194.304 113.549 195.084 114.321 195.084 115.274Z" fill="white"/>
<path d="M211.467 115.274C211.467 116.227 210.687 117 209.724 117C208.762 117 207.981 116.227 207.981 115.274C207.981 114.321 208.762 113.549 209.724 113.549C210.687 113.549 211.467 114.321 211.467 115.274Z" fill="white"/>
<path d="M227.85 115.274C227.85 116.227 227.07 117 226.108 117C225.145 117 224.365 116.227 224.365 115.274C224.365 114.321 225.145 113.549 226.108 113.549C227.07 113.549 227.85 114.321 227.85 115.274Z" fill="white"/>
<path d="M244.234 115.274C244.234 116.227 243.453 117 242.491 117C241.528 117 240.748 116.227 240.748 115.274C240.748 114.321 241.528 113.549 242.491 113.549C243.453 113.549 244.234 114.321 244.234 115.274Z" fill="white"/>
<path d="M260.617 115.274C260.617 116.227 259.836 117 258.874 117C257.911 117 257.131 116.227 257.131 115.274C257.131 114.321 257.911 113.549 258.874 113.549C259.836 113.549 260.617 114.321 260.617 115.274Z" fill="white"/>
<path d="M277 115.274C277 116.227 276.22 117 275.257 117C274.295 117 273.514 116.227 273.514 115.274C273.514 114.321 274.295 113.549 275.257 113.549C276.22 113.549 277 114.321 277 115.274Z" fill="white"/>
</g>
</svg>
